<svg xmlns="http://www.w3.org/2000/svg" xmlns:xlink="http://www.w3.org/1999/xlink" viewBox="0 0 3737.59 1118.69"><defs><style>.cls-1{fill:none;}.cls-2{isolation:isolate;}.cls-3{opacity:0.3;}.cls-4{fill:#fff;opacity:0.03;}.cls-4,.cls-5,.cls-6{mix-blend-mode:screen;}.cls-5,.cls-7{opacity:0.16;}.cls-5{fill:url(#radial-gradient);}.cls-6{opacity:0.1;fill:url(#radial-gradient-2);}.cls-7{mix-blend-mode:color-dodge;}.cls-8{clip-path:url(#clip-path);}.cls-9{fill:#b2b2b2;}</style><radialGradient id="radial-gradient" cx="3928.86" cy="854.37" r="106.68" gradientTransform="translate(-525.25 -2788.11) rotate(34.85)" gradientUnits="userSpaceOnUse"><stop offset="0" stop-color="#fff"/><stop offset="1"/></radialGradient><radialGradient id="radial-gradient-2" cx="1445.01" cy="339.81" r="339.81" gradientTransform="matrix(1, 0, 0, 1, 0, 0)" xlink:href="#radial-gradient"/><clipPath id="clip-path" transform="translate(549.31 -9.52)"><rect class="cls-1" x="-117" y="-1157.39" width="2690.79" height="2690.79"/></clipPath></defs><title>image_cover_background</title><g class="cls-2"><g id="Camada_1" data-name="Camada 1"><g class="cls-3"><circle class="cls-4" cx="2083.5" cy="261.88" r="157.7" transform="translate(974.38 1540.44) rotate(-45)"/><circle class="cls-5" cx="2210.89" cy="157.76" r="106.67" transform="translate(1085.31 1600.03) rotate(-45)"/></g><circle class="cls-6" cx="1445.01" cy="339.81" r="339.81"/><g class="cls-7"><g class="cls-8"><path class="cls-9" d="M-548,589.37c80.1-7.85,160.25-15.45,240-26.57C-228.3,552-149,537.18-71.38,516.09c19.25-5.81,38.72-10.91,57.7-17.59L.63,493.74c4.77-1.59,9.56-3.1,14.24-5l28.21-10.65,7.05-2.67,6.93-3,13.86-5.94c9.22-4,18.57-7.72,27.52-12.31l27.13-13.19c9-4.51,17.85-9.25,26.74-14,35.54-18.86,70.78-38.38,107.1-55.82s73.68-33,112.72-43.28c19.54-4.94,39.29-9.2,59.31-11.69,10-1.55,20-2.3,30.06-3.27,5-.51,10.06-.6,15.09-.92s10.06-.65,15.1-.64a765.52,765.52,0,0,1,120.57,7c40,5.18,79.54,12.88,118.85,21.59s78.37,18.49,117.32,28.65c77.9,20.31,155.3,42.45,233.28,62.27s156.6,37.36,236.28,48.26,160.34,15.39,240.49,9.16,159.56-23.33,233.7-54.51c74.27-30.77,144.2-71.65,220.19-99.06,76-27.18,157.66-37.34,238.05-32a912.69,912.69,0,0,1,119.79,15.31c39.52,7.78,78.62,17.55,117.33,28.6,77.47,22.1,153.08,50,229.18,76.1,38.05,13.09,76.24,25.76,114.77,37.36s77.51,21.68,116.88,29.91l14.79,3c4.93,1,9.85,2,14.83,2.78l29.77,4.92,29.94,3.73c5,.71,10,1.09,15,1.47l15,1.2a705.22,705.22,0,0,0,120.53-1.53,706.6,706.6,0,0,1-120.56,1.91l-15-1.15c-5-.37-10-.73-15-1.42l-30-3.64-29.8-4.83c-5-.73-9.91-1.75-14.84-2.74l-14.81-2.94c-39.43-8.11-78.44-18.19-117-29.57s-76.84-24-115-37c-76.16-26-151.75-53.82-229.17-75.8-38.69-11-77.75-20.71-117.21-28.44A911.17,911.17,0,0,0,2250.3,305c-80.19-5.26-161.49,4.95-237.14,32.09-75.69,27.4-145.54,68.32-220,99.27-74.38,31.37-154.18,48.71-234.48,55s-161.36,2.08-241.13-8.93S1159,453.64,1081,433.76s-155.39-42.15-233.23-62.53c-38.92-10.2-78-19.94-117.21-28.75S651.82,326,612,320.8a762.54,762.54,0,0,0-120.21-7.14c-5,0-10,.4-15.05.62s-10,.4-15,.91c-10,.95-20,1.69-29.95,3.22-19.93,2.46-39.6,6.68-59.06,11.58-38.88,10.2-76.16,25.7-112.41,43s-71.51,36.84-107.09,55.66c-8.9,4.71-17.79,9.43-26.79,13.95L99.18,455.81c-9,4.59-18.35,8.29-27.58,12.3l-13.89,5.94-7,3-7.07,2.66L15.42,490.33c-4.68,1.85-9.49,3.36-14.26,4.95L-13.18,500c-9.55,3.18-19.09,6.41-28.8,9.09l-29,8.43c-77.8,20.87-157.16,35.4-236.94,46C-387.68,574.43-467.86,581.78-548,589.37Z" transform="translate(549.31 -9.52)"/><path class="cls-9" d="M-548.06,622.07c80-6.33,160.08-13.2,239.63-24.11,79.56-10.6,158.61-25.57,236-46.81l28.85-8.54,14.43-4.3,14.25-4.8,28.49-9.69,28.1-10.77c4.66-1.84,9.41-3.47,14-5.5l13.8-6,13.8-6c4.59-2,9.26-3.88,13.71-6.19,18-8.86,36.13-17.44,53.76-27,35.43-18.86,70.48-38.49,106.41-56.51s72.76-34.4,111.17-46.42,78.22-19.23,118.26-22.77c20-1.58,40.14-2.59,60.24-2.45,20.11-.1,40.2.78,60.25,2.09,40.11,2.74,80,7.76,119.7,13.92s79.26,13,118.74,20.39c79,14.72,157.55,31.28,236.13,47.8q58.92,12.54,117.52,26.54c19.54,4.68,39,9.66,58.57,13.95l29.35,6.66,14.67,3.33,14.73,3c78.58,15.84,158.67,25.57,238.88,23.94a714.72,714.72,0,0,0,119.45-12.17q29.52-5.62,58.46-13.84c19.25-5.54,38.23-12,57-19.08,75-28.33,146.46-66,223-91.11a651.91,651.91,0,0,1,117.42-27A706.63,706.63,0,0,1,2251,326.42a743.77,743.77,0,0,1,119.64,14.17c39.43,7.79,78.3,18.16,116.78,29.64,77,22.9,152.55,50.35,228.76,75.57,38.08,12.69,76.43,24.59,115.09,35.38S2909,501.44,2948.41,509c78.74,15.21,159.61,21.53,239.6,13.51-80,8.27-160.9,2.21-239.74-12.76-39.48-7.4-78.58-16.71-117.29-27.43s-77.12-22.46-115.26-35c-76.29-25.11-151.8-52.5-228.79-75.28-38.46-11.43-77.29-21.74-116.65-29.48a741.26,741.26,0,0,0-119.33-14A702.34,702.34,0,0,0,2131,334.88a649.59,649.59,0,0,0-117,27c-76.25,25.16-147.6,62.83-222.8,91.33-18.8,7.1-37.85,13.62-57.18,19.21s-38.93,10.17-58.68,14a716.06,716.06,0,0,1-119.9,12.35c-80.47,1.72-160.8-7.94-239.55-23.75l-14.76-3.07-14.69-3.34-29.37-6.7c-19.62-4.33-39.08-9.33-58.58-14Q1140,433.7,1081.09,421.19c-78.56-16.6-157.11-33.25-236-48.05-39.45-7.39-79-14.34-118.64-20.5S647,341.39,607,338.61c-20-1.33-40-2.23-60.09-2.15-20.05-.16-40.08.82-60.06,2.38-39.91,3.48-79.58,10.5-117.83,22.55s-75.08,28.18-110.92,46.18-71,37.53-106.43,56.37C81,502.43,5.32,531-72,552.61c-77.57,21-156.71,35.75-236.33,46.1C-387.94,609.37-468,616-548.06,622.07Z" transform="translate(549.31 -9.52)"/><path class="cls-9" d="M-548.14,654.77c80.06-4.83,160.11-11,239.61-21.71,39.78-5.11,79.36-11.73,118.73-19.32l29.46-6c9.83-2,19.53-4.49,29.31-6.71,19.58-4.31,38.87-9.82,58.24-15,9.67-2.64,19.2-5.75,28.81-8.6s19.21-5.73,28.64-9.13l28.43-9.78c9.4-3.46,18.7-7.21,28.06-10.81l14-5.44c4.61-1.94,9.18-4,13.78-6l27.52-12.09,27-13.3c4.49-2.24,9-4.4,13.46-6.7l13.29-7c35.38-18.9,70.32-38.63,105.94-57.14s72-35.67,109.88-49.2L380.26,386c4.77-1.57,9.61-2.93,14.41-4.4,9.57-3.07,19.37-5.33,29.08-7.9,19.57-4.52,39.28-8.54,59.2-11.18,39.77-5.82,80-7.68,120.14-7.7,40.16.27,80.27,2.56,120.25,6s79.92,7.26,119.81,11.62c79.77,8.71,159.32,19.51,238.45,33,39.53,7,78.84,15.46,117.55,26.21,38.63,11,76.91,22.85,115.57,33.49,77.29,20.93,156.46,36.3,236.55,39.55A644.46,644.46,0,0,0,1671,498.18c19.79-3,39.45-6.86,58.85-11.76s38.57-10.76,57.55-17.17c75.88-25.77,148.65-60.38,225.54-84a829.83,829.83,0,0,1,117.4-26.68c39.67-6.21,79.84-9.68,120-9.16s80.27,5.24,119.59,13.34,78,19,116.38,30.78q28.76,8.88,57.37,18.18l57.16,18.85c38,12.74,76,25.64,114.24,37.78,76.41,24.27,154,45.34,233,59.17s159.68,19.29,239.6,11.66C3107.84,547.09,3027,542,2948,528.3s-156.82-34.43-233.36-58.47c-38.27-12.06-76.26-24.95-114.32-37.64l-57.15-18.78q-28.62-9.27-57.37-18.11c-38.33-11.75-77-22.62-116.24-30.61s-79.17-12.83-119.23-13.17-80.09,3-119.66,9.27a828.18,828.18,0,0,0-117.05,26.73c-76.66,23.6-149.35,58.27-225.4,84.19-19,6.44-38.25,12.32-57.73,17.29s-39.22,8.86-59.09,11.88a647.53,647.53,0,0,1-120.24,6.63c-80.39-3.17-159.79-18.49-237.25-39.4-38.69-10.69-77-22.62-115.56-33.62-38.59-10.77-77.79-19.27-117.25-26.27-79-13.57-158.52-24.45-238.24-33.24q-59.77-6.6-119.72-11.75c-39.94-3.46-80-5.79-120.06-6.1-40.05,0-80.17,1.78-119.82,7.54-19.86,2.62-39.5,6.6-59,11.08-9.68,2.55-19.45,4.79-29,7.84-4.78,1.46-9.6,2.81-14.36,4.37l-14.23,4.8c-37.74,13.43-74.08,30.56-109.68,49s-70.56,38.15-106,57l-13.31,7c-4.46,2.31-9,4.46-13.49,6.7l-27,13.3L69.61,537.84c-4.61,2-9.18,4-13.81,6l-14,5.44c-9.37,3.59-18.69,7.33-28.11,10.8l-28.48,9.75c-9.45,3.4-19.08,6.23-28.69,9.12s-19.17,5.95-28.86,8.55c-19.41,5.07-38.73,10.52-58.35,14.78-9.79,2.19-19.51,4.7-29.36,6.63l-29.5,6c-39.42,7.48-79,14-118.84,19C-388,644.29-468.06,650.19-548.14,654.77Z" transform="translate(549.31 -9.52)"/><path class="cls-9" d="M-548.23,687.47c80.2-3.35,160.37-8.79,240-19.35,39.82-5,79.41-11.67,118.8-19.3l29.47-6.13,7.36-1.54,7.32-1.75,14.63-3.49c19.58-4.4,38.88-9.91,58.24-15.17C-34,609.41,4.3,597.25,41.45,582.07c18.81-7,36.92-15.65,55.31-23.65,9.08-4.24,18-8.87,27-13.28l13.46-6.7c4.48-2.26,8.87-4.68,13.31-7,70.74-37.75,139.63-79.78,214.6-109.27a662.49,662.49,0,0,1,115.69-33.51c19.7-4,39.62-6.83,59.54-9.4,20-2.31,40-4.13,60-5.32,40.11-2.39,80.3-2.77,120.45-2.26s80.28,1.17,120.42,2.35c80.26,2.35,160.54,7.25,240.2,18.07,39.77,5.76,79.26,14.13,117.58,26.47,38.22,12.56,75.56,27.27,113.5,40.33,75.71,26.19,153.56,47.72,233.35,55.91a585.43,585.43,0,0,0,119.92-.7,587.93,587.93,0,0,0,59.26-9.65c19.57-4.28,38.94-9.45,58.14-15.19,76.81-23.12,150.77-55.06,228-77.66,38.56-11.36,77.82-20.16,117.34-27.39s79.57-12.09,119.82-12.3a508.83,508.83,0,0,1,60.21,3c20,2.22,39.83,5.61,59.49,9.8,39.32,8.37,77.87,19.87,116.15,31.93s76.43,24.6,114.6,37.06c38.1,12.64,76.21,25.23,114.61,36.89s77.12,22.27,116.13,31.65,78.36,17.46,118,23.74c79.2,12.67,160,17.24,240,10-80,7.54-160.79,3.23-240.08-9.2-39.68-6.16-79.06-14.15-118.13-23.38s-77.88-19.65-116.31-31.3-76.58-24.17-114.7-36.75c-38.16-12.42-76.31-24.92-114.61-36.93s-76.78-23.46-116-31.77c-19.6-4.15-39.38-7.5-59.3-9.69a504.91,504.91,0,0,0-60-3c-40.08.25-80,5.26-119.44,12.39s-78.62,16.09-117.07,27.47c-77,22.63-150.88,54.63-227.86,77.91-19.25,5.78-38.68,11-58.33,15.3a592.6,592.6,0,0,1-59.53,9.77,589.46,589.46,0,0,1-120.48.83c-80.16-8.15-158.22-29.64-234.09-55.82-38-13.11-75.35-27.88-113.4-40.44-38.11-12.31-77.44-20.7-117.08-26.48C1001.59,384,921.37,379,841.18,376.6c-40.11-1.22-80.24-1.9-120.37-2.48s-80.25-.22-120.29,2.12c-80,4.51-159.95,18.38-234.64,47.83S222.21,495.31,151.37,533c-4.45,2.34-8.85,4.75-13.33,7l-13.5,6.69c-9,4.41-17.94,9-27.05,13.28-18.43,8-36.58,16.64-55.43,23.63C4.84,598.78-33.5,611-72,622.2c-19.4,5.21-38.73,10.65-58.34,15L-145,640.65l-7.33,1.73-7.37,1.51-29.51,6.05c-39.44,7.5-79.07,14.07-118.93,18.93C-387.82,679.18-468,684.37-548.23,687.47Z" transform="translate(549.31 -9.52)"/><path class="cls-9" d="M-548.31,720.18c80.43-1.88,160.87-6.63,240.65-17,39.94-4.88,79.61-11.64,119.09-19.33,19.67-4.17,39.39-8.11,58.87-13.11l14.66-3.56,7.32-1.79,7.27-2,29.06-8.06c38.53-11.45,76.83-23.88,114-39.17,18.81-7.12,37-15.71,55.38-23.86,4.62-2,9.07-4.33,13.57-6.56l13.48-6.75c9-4.52,18-8.91,26.83-13.76,35.46-19,70.34-39,105.67-58.35s71.08-37.93,108.17-53.7a755.61,755.61,0,0,1,114.52-38.26c19.54-4.9,39.28-8.94,59.09-12.59,19.84-3.43,39.74-6.58,59.73-9,40-5,80.12-8.13,120.28-10.65s80.3-5.21,120.49-7.3,80.45-3.41,120.72-3.18c20.13.18,40.27.68,60.38,1.63s40.23,2.27,60.25,4.72c40,4.75,79.76,13.18,117.65,27.24,9.47,3.55,18.74,7.44,28.09,11.21l27.66,12.09c18.45,8.06,36.83,16.25,55.3,24.17,36.95,15.85,74.33,30.72,112.5,43.29,19.08,6.29,38.34,12,57.78,17s39,9.42,58.87,12.5a553.61,553.61,0,0,0,59.87,6,559,559,0,0,0,60.16-.78c40.06-2.75,79.65-10.39,118.49-20.61,77.78-20.44,152.84-50,230.29-72.19,38.71-11.13,77.9-20.45,117.26-28.88s79.36-14.63,119.7-15.68,80.67,3.86,120,12.64,77.84,20.71,116.15,33l114.88,37.06c38.24,12.49,76.55,24.78,115.17,36s77.63,21.13,116.89,29.86,78.81,16.18,118.63,21.9c79.58,11.47,160.47,15.36,240.67,8.37-80.18,7.24-161.11,3.61-240.78-7.61-39.85-5.6-79.45-13-118.77-21.55s-78.39-18.32-117.06-29.51-77-23.44-115.27-35.88l-114.92-36.93c-38.3-12.24-76.75-24.19-116-32.83s-79.33-13.64-119.5-12.46-80,7.39-119.29,15.77-78.45,17.81-117.07,29c-77.29,22.2-152.32,51.88-230.28,72.46-38.93,10.29-78.69,18-119,20.82a562.16,562.16,0,0,1-60.47.85,554.63,554.63,0,0,1-60.19-5.92c-19.94-3.07-39.65-7.47-59.16-12.49s-38.85-10.75-58-17c-38.29-12.58-75.78-27.42-112.79-43.27-18.5-8-36.87-16.16-55.28-24.24l-27.63-12.11c-9.31-3.76-18.58-7.67-28-11.19-37.59-14-77.11-22.43-117-27.2-19.92-2.47-40-3.71-60-4.77s-40.17-1.49-60.27-1.69c-40.2-.27-80.4,1-120.57,3s-80.31,4.76-120.47,7.17-80.25,5.56-120.14,10.51c-20,2.37-39.82,5.5-59.63,8.89-19.76,3.62-39.46,7.64-58.95,12.5a752.5,752.5,0,0,0-114.24,38c-37,15.69-72.75,34.24-108,53.49s-70.24,39.28-105.75,58.25c-8.82,4.84-17.89,9.24-26.89,13.75l-13.51,6.75c-4.51,2.23-9,4.59-13.6,6.55C80.34,602,62.11,610.54,43.26,617.65,6,632.92-32.36,645.36-71,656.72l-29.12,8-7.28,2-7.34,1.76L-129.39,672c-19.51,4.95-39.26,8.83-59,12.94-39.53,7.57-79.25,14.22-119.21,19C-387.41,714.05-467.88,718.55-548.31,720.18Z" transform="translate(549.31 -9.52)"/><path class="cls-9" d="M-548.39,752.88c80.77-.41,161.6-4.48,241.73-14.79,40.1-4.79,79.93-11.63,119.54-19.43,19.74-4.25,39.54-8.25,59.08-13.35l14.7-3.63,7.35-1.82,7.28-2,29.14-8.23,7.29-2.06,7.21-2.31,14.42-4.6L-26.23,676-19,673.7l7.12-2.56,28.49-10.27,7.11-2.58,7-2.84,14-5.68c18.85-7.24,37.11-15.86,55.52-24.15,4.63-2,9.13-4.29,13.63-6.58l13.51-6.82c9-4.58,18.08-9,26.92-13.85,71.13-38.19,139.88-81.09,213.51-114.78a877.75,877.75,0,0,1,113.49-42.65,1178,1178,0,0,1,117.9-28.27c39.72-7.58,79.71-13.53,119.7-19.19s79.91-11.85,120-17.34,80.25-10,120.63-12.29c20.18-1.21,40.41-1.69,60.63-1.76s40.49.59,60.65,2.52c40.28,3.85,80.38,12.62,117.71,28.66,4.68,2,9.26,4.12,13.85,6.26s9.21,4.19,13.72,6.47L1253,420l26.91,14,26.81,14.1c35.82,18.63,72.06,36.46,109.27,52.06,18.6,7.8,37.43,15,56.51,21.54a506.35,506.35,0,0,0,58.11,16.48,496.89,496.89,0,0,0,120,11.19c40.3-1,80.32-7.29,119.65-16.12S1848.4,513,1887,501.11l57.93-17.79,29-8.89,14.48-4.44c4.84-1.46,9.73-2.71,14.6-4.08l58.45-16.07q29.26-7.86,58.7-15.09c39.23-9.56,79.15-17.52,119.67-19.15,40.51-2,81.05,3.32,120.42,12.4s77.95,21.56,116.36,34l115.39,37c38.45,12.35,77,24.38,115.93,35.18s78.24,20,117.8,28.16,79.38,15,119.43,20.16c80.07,10.35,161.23,13.58,241.77,6.89-80.52,6.95-161.72,4-241.87-6.13-40.09-5.07-79.95-11.81-119.56-19.8s-79-17-118-27.81-77.55-22.75-116-35.05L2476,463.76c-38.42-12.44-76.88-24.89-116.23-33.87s-79.61-14.23-119.9-12.22c-40.32,1.67-80.07,9.63-119.24,19.22Q2091.28,444.17,2062,452l-58.38,16.11c-4.86,1.37-9.75,2.63-14.58,4.09l-14.47,4.46-29,8.92-57.9,17.84c-38.59,11.92-77.41,23.37-116.88,32.26S1691.22,551,1650.7,552A499.11,499.11,0,0,1,1530,540.91a509.47,509.47,0,0,1-58.44-16.5c-19.16-6.51-38.06-13.75-56.73-21.55-37.33-15.61-73.68-33.43-109.54-52.07l-26.82-14.13-26.85-14-26.86-14c-4.49-2.28-9.11-4.3-13.67-6.46S1202,398,1197.32,396c-37-15.93-76.75-24.69-116.8-28.56-20-1.95-40.2-2.58-60.38-2.58s-40.34.5-60.48,1.69c-40.29,2.25-80.43,6.73-120.43,12.14s-79.93,11.68-120,17.21-79.95,11.52-119.61,19A1174.34,1174.34,0,0,0,482,443a876.23,876.23,0,0,0-113.27,42.43C295.19,519,226.42,561.81,155.18,600c-8.84,4.88-18,9.26-27,13.84l-13.55,6.82c-4.5,2.29-9,4.58-13.65,6.58-18.45,8.28-36.75,16.89-55.63,24.12C8,666.78-30.42,679.48-69.14,691l-29.2,8.15-7.3,2L-113,703l-14.73,3.59c-19.57,5-39.39,9-59.16,13.17-39.67,7.68-79.54,14.4-119.68,19.07C-386.76,748.9-467.62,752.72-548.39,752.88Z" transform="translate(549.31 -9.52)"/><path class="cls-9" d="M-548.48,785.58c81.23,1.07,162.59-2.35,243.19-12.58,40.35-4.73,80.4-11.65,120.21-19.61l29.77-6.45,7.44-1.62,7.38-1.85,14.77-3.71,14.77-3.7,7.39-1.86,7.31-2.1L-67,723.69c38.8-11.92,77.34-24.87,114.77-40.61,18.93-7.38,37.26-16.12,55.74-24.52,4.65-2,9.16-4.35,13.68-6.66l13.57-6.9c9-4.64,18.17-9.06,27-14,71.47-38.58,140.39-82,213.58-117.55A1045.92,1045.92,0,0,1,484,466.64c38.41-13.38,77.47-24.79,116.85-34.86s79-19,118.68-27.86,79.05-18.67,118.72-27.55S917.9,359.76,958.32,355c20.19-2.5,40.49-4.09,60.82-5a473.1,473.1,0,0,1,61.06.54c40.57,3.08,81.13,12.28,117.79,30.52,36.72,17.86,70.31,41,104.93,62.19,34.5,21.42,69.36,42.28,105.4,60.93,18,9.33,36.32,18.08,55,26.06a457,457,0,0,0,57.14,20.52,468.79,468.79,0,0,0,119.9,17.44,544.3,544.3,0,0,0,60.69-2.66c20.17-2,40.23-5.07,60.17-8.78s39.74-8.18,59.44-13,39.32-10.08,58.77-16l117-34.17L2113.53,460c39.08-11,79-20.4,119.7-22.88a358.31,358.31,0,0,1,61,1.52,494.93,494.93,0,0,1,60.1,10.59c39.62,9.37,78.19,22.38,116.78,35s77.4,24.68,116.11,37,77.61,24,116.87,34.4,79,19,118.87,26.55S2903,596,2943.37,600.71c80.67,9.3,162.24,11.91,243.26,5.49-81,6.67-162.6,4.32-243.34-4.73-40.38-4.57-80.58-10.73-120.53-18.14s-79.74-15.83-119.05-26.2-78.22-22.11-117-34.28-77.51-24.32-116.17-36.9-77.15-25.57-116.66-34.87-80-14.6-120.54-11.93c-40.5,2.5-80.2,11.89-119.22,22.93L1997,495.81l-117,34.31c-19.44,5.89-39.1,11.08-58.82,16s-39.57,9.41-59.57,13.15-40.13,6.8-60.38,8.88a547.29,547.29,0,0,1-61,2.74,472,472,0,0,1-120.64-17.42,457.17,457.17,0,0,1-57.51-20.59c-18.72-8-37.1-16.74-55.18-26.08-36.16-18.68-71.13-39.52-105.67-60.95-34.65-21.22-68.17-44.39-104.61-62.16-36.23-18.08-76.4-27.25-116.69-30.35a469.53,469.53,0,0,0-60.72-.6c-20.25.9-40.49,2.47-60.62,4.94-40.3,4.69-80.2,12.4-119.83,21.18s-79,18.68-118.75,27.43S640.76,424,601.42,434s-78.35,21.37-116.7,34.68a1044.56,1044.56,0,0,0-112.42,46.6c-73.09,35.45-142,78.74-213.62,117.28-8.89,4.93-18.05,9.35-27.09,14L118,653.47c-4.52,2.31-9,4.63-13.71,6.66-18.52,8.39-36.89,17.13-55.84,24.49-37.51,15.72-76.1,28.68-115,40.52l-29.33,8.33-7.33,2.08-7.4,1.84-14.8,3.66-14.79,3.66-7.4,1.83-7.45,1.6-29.81,6.36c-39.87,7.85-80,14.64-120.35,19.25C-385.87,783.74-467.26,786.91-548.48,785.58Z" transform="translate(549.31 -9.52)"/><path class="cls-9" d="M-548.56,818.28c81.79,2.57,163.82-.23,245-10.41L-288.3,806l7.61-.93,7.59-1.16,30.32-4.65,7.58-1.18,7.55-1.4,15.08-2.81c10-2,20.15-3.53,30.11-5.88l30-6.58c5-1,10-2.29,14.92-3.58l14.86-3.78c19.9-4.76,39.45-10.79,59.1-16.48,39-12.28,77.76-25.48,115.38-41.58,19-7.5,37.42-16.47,56-25,4.69-2,9.19-4.48,13.75-6.79l13.65-7c9.09-4.67,18.26-9.21,27.19-14.19,71.9-39.08,141.12-83,214-120.47Q431,514.54,488.2,491.74c38-15.18,76.71-28.75,115.64-41.4s78.13-24.48,117.21-36.6,77.72-25.59,116.81-37.81c19.53-6.15,39.21-11.88,59-17s39.83-9.7,60-13.25c10.07-1.95,20.24-3.3,30.37-4.83,10.18-1.21,20.35-2.57,30.57-3.33a394.84,394.84,0,0,1,61.52-1.29c40.93,2.4,81.94,12.47,117.86,32.85,8.8,5.29,17.83,10.2,26.37,15.91s17,11.47,25.33,17.45l49.54,36.3c33,24.16,66.25,48.05,100.94,69.67,17.34,10.82,35,21.08,53.11,30.56a401.3,401.3,0,0,0,56,24.57,419,419,0,0,0,59,16.13,443.47,443.47,0,0,0,60.65,7.84c40.75,2.56,81.7-.44,122.09-6.45s80.33-15.18,119.86-25.61,78.78-22.09,118-33.83l58.8-17.63c19.54-6,39-12.46,58.47-18.66,38.93-12.44,78.76-23.53,119.76-26.82a335.81,335.81,0,0,1,61.48.91,467.74,467.74,0,0,1,60.52,10.71c39.88,9.59,78.62,23.09,117.45,35.94,19.4,6.47,38.94,12.52,58.46,18.67l58.57,18.38c39.08,12.11,78.33,23.7,118,33.7s79.82,17.95,120.11,25,80.84,12.72,121.54,16.92c81.39,8.32,163.52,10.33,245.15,4.18-81.61,6.4-163.77,4.65-245.22-3.42-40.73-4.08-81.31-9.69-121.66-16.55s-80.58-14.66-120.29-24.68-79-21.51-118.12-33.58l-58.6-18.31c-19.52-6.13-39.08-12.17-58.51-18.62C2425.1,495,2386.4,481.53,2346.63,472a465.39,465.39,0,0,0-60.28-10.61,334.36,334.36,0,0,0-61.1-.84c-40.75,3.31-80.38,14.39-119.27,26.86-19.48,6.22-38.89,12.71-58.47,18.73l-58.79,17.7c-39.19,11.78-78.44,23.45-118,34s-79.57,19.67-120.11,25.8-81.64,9.14-122.64,6.6a445.84,445.84,0,0,1-61-7.82,422.18,422.18,0,0,1-59.37-16.17,404.59,404.59,0,0,1-56.38-24.68c-18.17-9.5-35.93-19.78-53.33-30.61-34.81-21.66-68.15-45.54-101.2-69.7l-49.48-36.33c-8.29-6-16.66-11.83-25.2-17.41s-17.44-10.57-26.18-15.84c-35.45-20.15-76-30.17-116.57-32.6a391,391,0,0,0-61.11,1.23c-10.18.74-20.31,2.08-30.44,3.27-10.1,1.52-20.23,2.85-30.26,4.79-20.12,3.51-40.06,8-59.84,13.14s-39.43,10.78-58.94,16.9c-39,12.16-77.71,25.62-116.85,37.68s-78.31,23.84-117.22,36.47S527,478.66,489,493.78s-75.28,32-111.69,50.65c-72.82,37.32-142.09,81.18-214.09,120.21-8.94,5-18.13,9.51-27.24,14.19l-13.68,7c-4.57,2.31-9.08,4.73-13.78,6.79C89.9,701.09,71.46,710,52.4,717.54,14.71,733.6-24.11,746.82-63.18,759c-19.69,5.63-39.28,11.61-59.21,16.31l-14.89,3.75c-5,1.27-9.92,2.51-14.94,3.53l-30,6.5c-10,2.32-20.1,3.86-30.15,5.79l-15.11,2.76L-235,799l-7.58,1.15L-273,804.76l-7.6,1.13-7.62.91-15.24,1.82C-384.72,818.56-466.78,821.1-548.56,818.28Z" transform="translate(549.31 -9.52)"/><path class="cls-9" d="M-548.64,851c82.46,4.08,165.3,1.89,247.24-8.3,82-9.57,163-27.21,241.88-51.47,9.86-3,19.58-6.49,29.38-9.71s19.6-6.46,29.21-10.23l29-10.9c9.6-3.76,19.05-7.92,28.58-11.86l14.27-6c4.77-1.95,9.38-4.29,14.08-6.42L113,723c9.28-4.51,18.37-9.38,27.57-14.06S159,699.58,168,694.54c72.4-39.7,142.06-84.24,214.75-123.61,36.36-19.61,73.39-38,111.11-54.88s75.89-32.69,114.28-47.95,76.94-30,115.25-45.4,75.9-32.48,114.24-47.92S915,345.5,955.29,335.91c20.14-4.67,40.47-8.76,61-11.18a346.55,346.55,0,0,1,62-3,305.73,305.73,0,0,1,31,3.13,252.51,252.51,0,0,1,30.38,6.82,214.61,214.61,0,0,1,29.21,10.81c4.8,2,9.33,4.58,14,6.89,4.46,2.66,9.1,5.07,13.36,8,8.66,5.7,17.47,11.19,25.68,17.51s16.37,12.69,24.33,19.3c15.87,13.26,31.47,26.77,47.18,40.18,31.35,26.87,62.83,53.6,96,78.18,16.55,12.29,33.5,24,51,35a376.83,376.83,0,0,0,54.58,28.67A421.43,421.43,0,0,0,1614,607.06a486.38,486.38,0,0,0,61.66,2.82c20.59-.27,41.17-1.66,61.65-4,41-4.56,81.51-12.59,121.59-22.32,20-4.88,40-10.19,59.85-15.79s39.66-11.44,59.33-17.69l59.08-18.48c19.58-6.49,38.94-13.64,58.39-20.6,38.81-13.88,78.51-26.87,119.85-31a310.58,310.58,0,0,1,62,0,438.6,438.6,0,0,1,61.08,10.73c40.21,9.79,79.19,23.73,118.33,36.79,19.55,6.6,39.29,12.63,59,18.78L2575,564.69c39.49,12,79.17,23.45,119.3,33.1,40.1,9.8,80.77,17,121.52,23.59s81.74,11.66,122.85,15.4c82.22,7.39,165,8.8,247.43,2.92-82.37,6.13-165.21,5-247.49-2.16q-61.71-5.43-123-15c-40.78-6.45-81.51-13.55-121.69-23.24s-79.92-21-119.44-33L2515.33,548c-19.71-6.13-39.48-12.15-59.06-18.73-39.18-13-78.12-26.91-118.22-36.62A437.22,437.22,0,0,0,2277.23,482a308.62,308.62,0,0,0-61.61,0c-41.06,4.17-80.57,17.13-119.33,31.05-19.43,7-38.8,14.15-58.41,20.67l-59.12,18.57q-29.52,9.4-59.36,17.76c-19.88,5.62-39.84,11-59.91,15.88-40.14,9.78-80.77,17.88-121.89,22.5-20.55,2.35-41.21,3.77-61.9,4.07a488.25,488.25,0,0,1-62-2.78,424.05,424.05,0,0,1-119.92-30.9,379.32,379.32,0,0,1-55-28.82c-17.54-11-34.57-22.75-51.18-35.07-33.25-24.62-64.83-51.36-96.2-78.22-15.69-13.42-31.29-27-47.11-40.2-7.92-6.59-15.94-13.06-24.18-19.23s-16.88-11.74-25.47-17.4c-4.24-2.94-8.79-5.29-13.18-7.93-4.59-2.28-9-4.83-13.79-6.81a211.92,211.92,0,0,0-28.81-10.7,247.94,247.94,0,0,0-30-6.76,302.08,302.08,0,0,0-30.63-3.14,344.3,344.3,0,0,0-61.54,2.9c-20.46,2.39-40.69,6.44-60.75,11.06-40.11,9.51-79.14,23.16-117.37,38.63S762.61,409.56,724.27,425,647.34,455.07,609,470.26c-76.8,30.26-152.71,63.06-225.26,102.49C311.05,612,241.33,656.46,168.83,696.13c-9,5-18.22,9.73-27.42,14.43s-18.34,9.54-27.63,14.05l-28.11,13c-4.71,2.13-9.32,4.46-14.1,6.42l-14.3,6c-9.55,3.94-19,8.09-28.63,11.85l-29,10.88c-9.62,3.77-19.45,7-29.25,10.21s-19.56,6.67-29.44,9.67c-79.05,24.05-160.15,41.44-242.24,50.78C-383.33,853.38-466.2,855.32-548.64,851Z" transform="translate(549.31 -9.52)"/><path class="cls-9" d="M-548.73,883.69l31.25,1.73c5.2.25,10.41.66,15.62.78l15.64.31c10.43.15,20.86.59,31.29.48l31.28-.44c41.68-1.25,83.37-3.79,124.76-9.07,82.89-9.54,164.63-27.94,244.19-52.85l29.62-10,14.81-5L4.35,804l29.22-11.14,28.79-12.21,14.39-6.11L90.9,767.9l28.3-13.32L147,740.2l13.88-7.2,13.71-7.53c73-40.46,143.17-85.72,215.72-127.07,72.47-41.52,147.68-78,223.16-113.54,37.72-17.85,75.5-35.56,112.78-54.26s73.66-39.16,111.09-57.71c18.73-9.23,37.63-18.17,57-26.1s39-15.08,59.07-21a530.29,530.29,0,0,1,61.11-14.08,307.66,307.66,0,0,1,31.17-3.82,272.22,272.22,0,0,1,31.42-.65A232.31,232.31,0,0,1,1139,317.51a213.2,213.2,0,0,1,29.15,11.91c9.28,4.9,18.47,10.16,26.8,16.52,17.42,11.72,33,25.88,48.14,40.25s29.84,29.22,44.65,43.92c29.57,29.44,59.13,58.91,90.52,86.33,31.47,27.21,64.18,53.55,101.5,72.07a405.6,405.6,0,0,0,118.29,38,471.29,471.29,0,0,0,62.08,5.88,585.26,585.26,0,0,0,62.4-1.38c41.55-3,82.76-9.84,123.44-18.86s80.87-20.33,120.68-32.72q29.85-9.32,59.34-19.74c19.63-7,39-14.82,58.35-22.53,38.67-15.41,78.23-30.29,119.91-35.62a291.08,291.08,0,0,1,62.66-1.09,413.85,413.85,0,0,1,61.77,10.59c40.63,9.92,79.91,24.32,119.42,37.62,19.74,6.72,39.69,12.77,59.63,18.93s39.84,12.4,59.83,18.37c39.95,12,80.13,23.25,120.77,32.59,40.61,9.5,81.83,16.16,123.09,22.23s82.75,10.64,124.33,13.94a1723.74,1723.74,0,0,0,250.08,1.69,1723.15,1723.15,0,0,1-250.14-.93q-62.41-4.77-124.44-13.57c-41.29-6-82.56-12.49-123.26-21.88S2607,599.54,2567.05,587.6c-20-6-39.89-12.22-59.85-18.31s-39.93-12.17-59.69-18.89C2408,537.13,2368.7,522.8,2328.2,513a411,411,0,0,0-61.49-10.47,288.29,288.29,0,0,0-62.22,1.15c-41.36,5.32-80.72,20.16-119.36,35.6-19.37,7.73-38.72,15.6-58.4,22.63s-39.48,13.58-59.4,19.83c-39.85,12.44-80.07,23.78-120.84,32.9s-82.08,16-123.79,19a587.6,587.6,0,0,1-62.67,1.45,473.74,473.74,0,0,1-62.44-5.85,407.77,407.77,0,0,1-119.13-38.17,362.15,362.15,0,0,1-53.4-33c-16.82-12.42-33-25.65-48.79-39.38-31.51-27.48-61.16-57-90.74-86.38-14.79-14.72-29.54-29.49-44.56-43.93s-30.52-28.4-47.76-40a186,186,0,0,0-26.41-16.32,209,209,0,0,0-28.71-11.76A229.23,229.23,0,0,0,1077,310a271.39,271.39,0,0,0-31.11.61,306.23,306.23,0,0,0-30.92,3.77,525.14,525.14,0,0,0-60.8,13.94c-20,5.9-39.54,13-58.83,20.88s-38.13,16.77-56.83,26c-37.38,18.47-73.8,38.87-111.14,57.58S652.16,469.15,614.43,487C538.92,522.45,463.75,558.79,391.3,600.2,318.78,641.43,248.51,686.62,175.43,727l-13.73,7.53-13.9,7.19L120,756.14l-28.35,13.3-14.18,6.65L63,782.2,34.18,794.39,4.91,805.52l-14.65,5.54-14.83,5-29.67,10c-79.73,24.71-161.6,42.87-244.57,52.17-41.42,5.15-83.13,7.57-124.83,8.69l-31.3.35c-10.43.07-20.85-.4-31.28-.58l-15.65-.36c-5.21-.14-10.41-.56-15.62-.83Z" transform="translate(549.31 -9.52)"/><path class="cls-9" d="M-548.81,916.39c168.32,15,339.17-6.51,499.6-58.67,80.09-26.57,157.84-60.32,231.31-101.9C255.75,714.54,326.54,668.38,399,625c72.36-43.62,146.73-83.75,220.64-124.56,36.92-20.46,73.77-41.09,109.8-63.05s71.1-45.53,107.49-67.06c18.22-10.72,36.75-20.93,55.71-30.31a591.33,591.33,0,0,1,58.47-24.66,498.23,498.23,0,0,1,61.17-16.93c20.77-4.15,42-6.51,63.23-5.9,5.31,0,10.61.57,15.9.9,5.27.67,10.57,1.13,15.79,2.16a184.58,184.58,0,0,1,30.86,7.9,176.83,176.83,0,0,1,29.08,13.07l6.87,4.07c2.31,1.32,4.42,3,6.65,4.42,4.49,2.88,8.53,6.32,12.71,9.59s8.4,6.49,12.38,10,7.86,7.12,11.67,10.8c7.62,7.37,14.92,15,22.06,22.86,14.24,15.63,28.11,31.56,42,47.49,27.7,31.88,55.22,63.92,84.75,94,29.64,29.87,60.57,59.08,97,80.3,36.16,21.51,76,36.66,117.11,45.59s83.47,11.86,125.55,10.57,84.06-6.86,125.39-15.14a1153.38,1153.38,0,0,0,122.33-32q30.15-9.59,59.78-20.71c19.72-7.44,39-15.94,58.37-24.42,38.53-17,77.9-33.75,119.88-40.58a274.27,274.27,0,0,1,63.36-2.54,386.09,386.09,0,0,1,62.59,10.24c41.14,10,80.79,24.85,120.73,38.41,20,6.88,40.14,13,60.33,19.15S2539,601.07,2559.23,607c40.47,12,81.2,23.12,122.42,32.18,41.17,9.23,83,15.37,124.8,21s83.87,9.64,126,12.51a1943.26,1943.26,0,0,0,253.1.5,1944,1944,0,0,1-253.15.26q-63.21-4.11-126.08-12.14c-41.86-5.46-83.72-11.48-125-20.6s-82.06-20.14-122.57-32.06c-20.26-5.95-40.4-12.25-60.61-18.36s-40.43-12.24-60.41-19.11c-40-13.53-79.6-28.34-120.61-38.23a383.28,383.28,0,0,0-62.27-10.13,271.84,271.84,0,0,0-62.89,2.59c-41.65,6.82-80.81,23.53-119.33,40.55-19.32,8.5-38.66,17-58.45,24.52s-39.74,14.39-59.87,20.82a1160.63,1160.63,0,0,1-122.56,32.24c-41.43,8.34-83.49,13.93-125.79,15.32s-84.81-1.44-126.21-10.51-81.52-24.15-118-45.8a349.41,349.41,0,0,1-51.5-37.15c-16-13.82-31.36-28.42-46.18-43.51-29.65-30.18-57.26-62.23-85-94.09-13.85-15.94-27.7-31.88-41.88-47.48-7.11-7.78-14.36-15.42-21.91-22.74q-5.67-5.49-11.56-10.72c-3.94-3.48-8.18-6.6-12.25-9.91s-8.14-6.66-12.54-9.49c-2.19-1.44-4.26-3.06-6.53-4.35l-6.75-4a174.33,174.33,0,0,0-28.59-12.89,180.86,180.86,0,0,0-30.4-7.81c-5.14-1-10.37-1.48-15.57-2.15-5.23-.33-10.45-.9-15.7-.9-42.11-1.24-83.67,9.14-123.43,22.54a592,592,0,0,0-58.21,24.48c-18.89,9.33-37.37,19.48-55.56,30.16-36.32,21.44-71.43,44.94-107.52,66.93s-73,42.55-110,63c-74,40.74-148.33,80.78-220.7,124.29C327.59,670,256.75,716.15,183,757.4c-73.61,41.53-151.5,75.3-231.72,101.76C-209.52,910.9-380.54,931.92-548.81,916.39Z" transform="translate(549.31 -9.52)"/><path class="cls-9" d="M-548.89,949.09l31.95,2.81c5.33.41,10.65,1.07,16,1.27l16,.74,16,.73c5.34.25,10.68.55,16,.49l32.07.16c2.68,0,5.35.06,8,0l8-.28,16-.57c10.69-.4,21.38-.59,32-1.57l32-2.38c10.64-1,21.25-2.37,31.88-3.53l15.93-1.82,15.85-2.4,31.7-4.89,31.49-6c5.24-1.06,10.52-1.9,15.73-3.13l15.62-3.6c41.79-9.09,82.82-21.31,123.44-34.58l30.27-10.6,7.56-2.64,7.47-2.91,14.93-5.84,14.93-5.84,7.46-2.94,7.35-3.19,29.41-12.77c4.94-2.06,9.76-4.35,14.57-6.69l14.46-6.92c9.61-4.68,19.38-9,28.76-14.15l28.4-14.9c4.75-2.43,9.41-5.06,14.08-7.65s9.35-5.2,14-7.85c74.42-42.19,145.81-89.44,218.2-135.06C481,604.72,554.39,560.7,626.48,514.65c36-23.07,71.69-46.67,106.34-71.71s68.27-51.57,103.57-75.85q26.45-18.25,54.39-34.23a505.54,505.54,0,0,1,57.81-28.13c19.82-8.26,40.43-14.43,61.22-19.71a304.42,304.42,0,0,1,31.72-5.67,251,251,0,0,1,32.2-1.66c21.5.43,43.09,3.95,63.25,11.73,20.32,7.36,38.6,19.67,54.72,33.79s30.39,30.46,43.78,47.18,26.33,33.78,39.23,50.86c25.76,34.17,51.18,68.6,78.76,101.24,13.79,16.32,28.11,32.18,43.2,47.28,7.48,7.62,15.37,14.76,23.46,21.69,8.25,6.74,16.61,13.35,25.43,19.33a356.29,356.29,0,0,0,55.49,31.56,394.71,394.71,0,0,0,60,21.92c41.09,11.47,83.81,16.53,126.46,17.08a693.73,693.73,0,0,0,127.42-11.06,940.62,940.62,0,0,0,124.22-31.13q30.51-9.81,60.34-21.58c19.87-7.8,39.18-17,58.48-26.19s38.55-18.61,58.42-26.67,40.28-14.91,61.34-19.16a251.38,251.38,0,0,1,64.08-4.47,355.59,355.59,0,0,1,63.52,9.69c41.73,10,81.84,25.25,122.25,39.14,20.19,7,40.62,13.27,61.11,19.43s40.9,12.52,61.42,18.52c41,12,82.38,23,124.21,31.87,41.8,9,84.23,14.67,126.68,19.76s85.09,8.67,127.79,11.11a2212.12,2212.12,0,0,0,256.47-.67,2212.81,2212.81,0,0,1-256.51,1.43q-64.08-3.47-127.88-10.73c-42.48-5-85-10.51-126.86-19.41s-83.28-19.83-124.36-31.75c-20.55-6-41-12.32-61.46-18.46s-41-12.36-61.2-19.39c-40.46-13.86-80.53-29.07-122.11-39a353.41,353.41,0,0,0-63.18-9.57,249.67,249.67,0,0,0-63.57,4.5c-20.89,4.24-41.19,11-60.94,19.11s-39,17.45-58.27,26.68-38.65,18.45-58.6,26.31-40.08,15.11-60.45,21.69a943.93,943.93,0,0,1-124.51,31.34A697.44,697.44,0,0,1,1687.48,684c-42.84-.51-85.78-5.55-127.16-17.06a395.76,395.76,0,0,1-60.43-22,359.37,359.37,0,0,1-56-31.75c-8.9-6-17.34-12.67-25.66-19.46-8.16-7-16.15-14.2-23.67-21.84-15.18-15.15-29.58-31.06-43.42-47.41-27.7-32.72-53.19-67.16-79-101.31-12.87-17.08-25.81-34.11-39.12-50.83s-27.37-32.81-43.36-46.84-33.81-26-53.81-33.31c-19.79-7.66-41-11.15-62.26-11.6a248.9,248.9,0,0,0-31.82,1.6,301.49,301.49,0,0,0-31.41,5.59c-20.65,5.22-41.13,11.33-60.84,19.52a503.37,503.37,0,0,0-57.53,27.92Q864.27,351,837.85,369.22c-35.23,24.19-68.94,50.57-103.6,75.71s-70.47,48.63-106.52,71.68c-72.18,46-145.61,89.94-217.89,135.71C337.43,697.85,266,745,191.42,787.2q-7,4-14,7.84c-4.68,2.59-9.34,5.21-14.11,7.65l-28.45,14.89c-9.4,5.12-19.19,9.46-28.81,14.14l-14.49,6.92c-4.82,2.33-9.65,4.62-14.59,6.68L47.5,858.07l-7.36,3.19-7.47,2.93-15,5.84L2.76,875.86l-7.48,2.9-7.58,2.64L-42.62,892c-40.7,13.17-81.81,25.29-123.67,34.25l-15.65,3.56c-5.21,1.22-10.5,2-15.75,3.09l-31.53,5.94-31.73,4.8L-276.83,946l-15.94,1.77c-10.64,1.13-21.26,2.45-31.91,3.44l-32,2.29c-10.66.95-21.36,1.11-32.05,1.48l-16,.51-8,.26c-2.67,0-5.35,0-8,0l-32.09-.26c-5.35.05-10.69-.27-16-.53l-16-.78-16-.79c-5.34-.22-10.66-.89-16-1.32Z" transform="translate(549.31 -9.52)"/><path class="cls-9" d="M-549,981.8l32.37,3.36c5.4.49,10.77,1.28,16.19,1.52l16.24,1,16.24,1,8.12.47c2.71.14,5.42.11,8.13.17l32.53.47c5.42.18,10.84-.05,16.26-.2l16.26-.46,16.26-.46c5.42-.13,10.82-.69,16.23-1l32.45-2.28,32.33-3.6c5.39-.64,10.79-1.11,16.15-1.9l16.08-2.45c10.71-1.71,21.47-3.09,32.13-5.08,21.28-4.15,42.64-7.91,63.68-13.19l15.84-3.69,7.92-1.87,7.84-2.14,31.37-8.59c5.25-1.35,10.41-3,15.58-4.66l15.51-4.87c10.34-3.27,20.73-6.37,30.89-10.17l30.65-10.87c10.16-3.77,20.18-7.93,30.28-11.87l15.11-6c5-2,10-4.31,14.93-6.45l29.78-13.07,29.31-14.09,14.64-7.07,14.39-7.57,28.76-15.19c9.48-5.26,18.95-10.55,28.34-16C275,771.65,347.13,723.26,419.35,675.16c72.08-48.31,144.35-96.41,214.35-147.68,34.95-25.67,69.35-52.13,102.43-80.18s65.25-57.24,99.48-84q25.53-20.25,53-37.95a451.7,451.7,0,0,1,57.13-31.44c19.66-9.4,40.4-16.28,61.3-22.31a242.11,242.11,0,0,1,64.66-8.81,200.47,200.47,0,0,1,32.6,3.2,169.57,169.57,0,0,1,31.4,9.4c20.25,8.37,38.46,21.38,53.91,36.72,15.64,15.28,29,32.65,41.49,50.41s24.52,35.87,36.43,54c23.81,36.3,47.1,72.93,72.68,107.93,12.79,17.5,26.14,34.58,40.33,50.93A339.55,339.55,0,0,0,1427,620.45a362.14,362.14,0,0,0,54,35.72,405.93,405.93,0,0,0,59.38,25.91c41,13.93,84,21.55,127.16,23.95s86.67-.16,129.5-6.48a797.71,797.71,0,0,0,126.34-29.85q30.93-9.94,61-22.3c20-8.22,39.48-17.77,58.72-27.79s38.44-20.17,58.18-29.27,40.16-16.9,61.32-22.08a236.47,236.47,0,0,1,32.16-5.63c5.41-.62,10.87-.71,16.3-1.09s10.89,0,16.33,0c21.77.63,43.38,3.94,64.56,8.8,42.42,9.77,83.06,25.47,124,39.72,20.45,7.24,41.13,13.67,61.94,19.82s41.52,12.59,62.35,18.63c41.67,12,83.65,23,126.14,31.69,42.46,8.82,85.57,14,128.69,18.63s86.42,7.72,129.75,9.74A2551.24,2551.24,0,0,0,3185,706.68a2552,2552,0,0,1-260.21,2.62q-65-2.84-129.82-9.36c-43.15-4.47-86.32-9.57-128.88-18.27s-84.6-19.59-126.3-31.57c-20.85-6-41.59-12.4-62.39-18.58s-41.56-12.56-62-19.78c-41-14.23-81.57-29.86-123.82-39.54-21.09-4.82-42.58-8.08-64.19-8.69-5.4,0-10.81-.27-16.2,0s-10.8.47-16.16,1.1a234.52,234.52,0,0,0-31.88,5.61c-21,5.16-41.29,12.9-60.92,22s-38.79,19.3-58.06,29.28-38.76,19.67-58.87,27.94-40.5,15.75-61.17,22.42A800.5,800.5,0,0,1,1797.39,702c-43,6.38-86.58,9.14-130,6.63s-86.64-10-127.89-24a407.75,407.75,0,0,1-59.82-26,364.72,364.72,0,0,1-54.46-36,342.19,342.19,0,0,1-46.88-45.4c-14.27-16.42-27.69-33.55-40.53-51.08-25.68-35.08-49.06-71.72-72.87-108-11.88-18.14-23.9-36.21-36.31-54s-25.67-34.93-41.09-50-33.06-27.9-53-36.16a165.36,165.36,0,0,0-30.83-9.26,198.14,198.14,0,0,0-32.08-3.18,239.13,239.13,0,0,0-63.91,8.65c-20.75,6-41.35,12.77-60.89,22.09A447.35,447.35,0,0,0,890,327.55q-27.31,17.54-52.84,37.75C803,392,770.87,421.14,737.71,449.18s-67.63,54.51-102.64,80.18C565,580.6,492.63,628.64,420.49,676.88c-72.27,48-144.46,96.37-219.78,139.61-9.41,5.41-18.89,10.7-28.38,16l-28.82,15.17-14.41,7.57-14.68,7.06L85.06,876.33l-29.83,13c-5,2.14-9.91,4.43-14.95,6.45l-15.14,6C15,905.75,5,909.91-5.19,913.66l-30.7,10.84c-10.18,3.76-20.6,6.84-30.95,10.08l-15.55,4.84C-87.57,941-92.73,942.7-98,944l-31.42,8.5-7.86,2.12-7.93,1.85-15.86,3.65c-21.07,5.22-42.47,8.92-63.78,13-10.67,2-21.45,3.31-32.16,5l-16.1,2.4c-5.37.77-10.78,1.23-16.17,1.85l-32.36,3.51-32.47,2.19c-5.42.31-10.82.86-16.24,1l-16.27.41-16.27.42c-5.42.13-10.84.34-16.27.15l-32.54-.56c-2.71-.07-5.42,0-8.13-.2l-8.12-.49-16.24-1-16.24-1c-5.42-.25-10.79-1.06-16.19-1.57Z" transform="translate(549.31 -9.52)"/><path class="cls-9" d="M-549.06,1014.5l32.8,3.93,8.2,1,4.1.49,4.12.3,16.47,1.17,16.48,1.17,8.24.58,8.25.21,33,.79c5.5.26,11-.08,16.51-.14l16.51-.36,16.51-.36c5.5-.26,11-.69,16.48-1,11-.77,22-1.36,32.95-2.28l32.83-3.6c43.66-5.5,87.16-12.85,129.9-23.46l16.07-3.79c5.37-1.22,10.63-2.87,15.94-4.29L-91.86,976l31.48-10,15.72-5,15.53-5.6c10.34-3.76,20.74-7.37,31-11.25l30.65-12.29c5.08-2.1,10.27-4,15.27-6.27l15.09-6.69c10-4.53,20.2-8.76,30.11-13.55,19.77-9.69,39.74-19,59-29.6,9.68-5.23,19.52-10.18,29.09-15.63s19.16-10.84,28.67-16.37c76.06-44.46,148.9-94.17,220.83-145S573.41,595.35,641,538.91q25.37-21.15,50-43.2c8.24-7.31,16.28-14.82,24.37-22.28s16-15.13,23.83-22.86c31.57-30.7,62.23-62.45,95.4-91.57,8.17-7.42,16.77-14.34,25.22-21.44,8.75-6.73,17.31-13.71,26.41-20,8.85-6.6,18.25-12.42,27.5-18.46,4.74-2.85,9.55-5.55,14.33-8.34,2.4-1.35,4.75-2.82,7.2-4.08l7.4-3.74,7.4-3.74c2.46-1.25,4.91-2.53,7.48-3.56l15.22-6.58c2.51-1.16,5.12-2.08,7.73-3l7.81-2.79c5.2-1.86,10.38-3.81,15.71-5.29,5.28-1.69,10.67-2.94,16-4.31,2.69-.64,5.42-1.12,8.13-1.69s5.43-1.1,8.18-1.46a201.65,201.65,0,0,1,33.11-2.66,173.61,173.61,0,0,1,33.1,3.3,158.48,158.48,0,0,1,31.7,10.16,156.54,156.54,0,0,1,28.56,17.13c2.29,1.58,4.29,3.53,6.45,5.28s4.29,3.55,6.28,5.47q6.08,5.68,11.71,11.81c15,16.36,27.53,34.74,39.15,53.49s22.7,37.83,33.63,57c21.85,38.28,43,76.92,66.6,114.11,11.77,18.59,24.13,36.81,37.38,54.35a357.81,357.81,0,0,0,43.79,49,370.36,370.36,0,0,0,110.8,69.85c40.6,16.79,83.85,26.72,127.51,31.37a593.8,593.8,0,0,0,131.58-1.45,699.54,699.54,0,0,0,128.69-28.13q31.42-10,61.86-22.84a606.13,606.13,0,0,0,59.12-29.2c19.26-10.63,38.31-21.74,58-31.8s39.85-19.2,61.13-25.32c5.35-1.41,10.62-3.12,16.07-4.11l8.11-1.72c2.71-.54,5.47-.83,8.2-1.25s5.47-.84,8.22-1.13l8.27-.6,8.28-.58,8.29,0c22.12-.05,44.15,2.88,65.71,7.56,43.2,9.43,84.43,25.54,125.9,40.22q31.09,11.14,62.83,20.28l63.33,18.79c42.34,12.1,85,23.11,128.21,31.59q32.38,6.39,65.16,10.54l32.81,3.79c11,1.08,21.89,2.34,32.86,3.27q65.77,6.06,131.84,8.36c88,3.15,176.2,1.59,264.16-3-87.95,4.89-176.12,6.7-264.19,3.8q-66-2.19-131.91-8c-11-.9-21.93-2.13-32.89-3.18l-32.84-3.7q-32.82-4.05-65.29-10.37c-43.28-8.4-86-19.41-128.38-31.46l-63.37-18.74c-21.16-6.1-42.19-12.83-62.93-20.25-41.52-14.65-82.71-30.69-125.71-40-21.46-4.64-43.35-7.52-65.29-7.45l-8.23,0-8.2.58-8.2.6c-2.73.29-5.43.75-8.14,1.12s-5.44.71-8.13,1.25l-8,1.71c-5.4,1-10.63,2.7-15.93,4.09-21.09,6.1-41.18,15.25-60.74,25.25s-38.58,21.15-57.87,31.82a605.79,605.79,0,0,1-59.29,29.36q-30.47,12.92-62,23A702.19,702.19,0,0,1,1778,731.21a595.78,595.78,0,0,1-132.14,1.59c-43.88-4.63-87.39-14.56-128.28-31.42a373.22,373.22,0,0,1-111.69-70.28,360.68,360.68,0,0,1-44.19-49.37c-13.33-17.61-25.75-35.88-37.57-54.51-23.65-37.27-44.92-75.93-66.78-114.17-10.9-19.14-22-38.17-33.51-56.92s-24-36.92-38.76-53.07q-5.55-6-11.54-11.67c-2-1.91-4.11-3.59-6.17-5.38s-4.08-3.64-6.32-5.19a153.61,153.61,0,0,0-28-16.81A155.41,155.41,0,0,0,1102,254a170.66,170.66,0,0,0-32.53-3.27,197.51,197.51,0,0,0-32.66,2.59c-2.72.35-5.41.86-8.08,1.43s-5.38,1-8,1.67c-5.31,1.35-10.65,2.58-15.87,4.25-5.29,1.46-10.42,3.39-15.59,5.23l-7.75,2.76c-2.59.9-5.18,1.81-7.68,3l-15.11,6.51c-2.55,1-5,2.29-7.43,3.53l-7.35,3.71-7.35,3.7c-2.45,1.25-4.78,2.71-7.17,4.06-4.74,2.76-9.54,5.44-14.24,8.26-9.2,6-18.55,11.77-27.37,18.34-9.06,6.22-17.59,13.17-26.31,19.86-8.42,7.06-17,13.95-25.15,21.34-33.11,29-63.77,60.69-95.39,91.39-7.86,7.73-15.9,15.28-23.89,22.87s-16.18,15-24.43,22.29q-24.62,22.1-50.07,43.2C574.76,597.13,503.75,649.48,431.84,700.4S286.9,800.85,210.73,845.28c-9.53,5.53-19.09,11-28.72,16.36S162.57,872,152.87,877.25c-19.33,10.62-39.33,19.9-59.13,29.59-9.93,4.78-20.11,9-30.16,13.53l-15.12,6.69c-5,2.29-10.2,4.16-15.29,6.26L2.47,945.59c-10.31,3.88-20.73,7.48-31.09,11.21l-15.57,5.56-15.76,5-31.53,9.9L-123.36,986c-5.33,1.4-10.59,3-16,4.25l-16.1,3.74c-42.81,10.5-86.36,17.73-130.07,23.11l-32.86,3.51c-11,.88-22,1.44-33,2.18-5.49.33-11,.75-16.49,1l-16.52.32-16.51.31c-5.51,0-11,.36-16.52.09l-33-.88-8.26-.24-8.24-.6-16.47-1.22-16.47-1.22L-504,1020l-4.1-.5-8.2-1Z" transform="translate(549.31 -9.52)"/><path class="cls-9" d="M-549.14,1047.2a997.37,997.37,0,0,0,133.66,11.38c11.19.15,22.37-.25,33.56-.34,5.59-.11,11.19-.13,16.78-.3l16.74-1,16.75-1c5.58-.41,11.18-.55,16.73-1.26l33.37-3.59,8.34-.91,8.29-1.26,16.59-2.52c11.05-1.7,22.14-3.2,33.08-5.55l32.94-6.44c10.9-2.48,21.76-5.16,32.65-7.73,5.43-1.32,10.89-2.54,16.3-3.94l16.16-4.54c10.74-3.09,21.57-5.9,32.25-9.23,21.27-6.94,42.68-13.43,63.58-21.45,84.26-30.2,164.83-70,241.89-115.43,77-45.71,150.47-97,222-150.81,71.4-54,140.77-110.74,205.81-172.23,16.2-15.43,32.21-31.07,47.83-47.08s30.85-32.4,45.79-49.06c29.95-33.25,59.32-67.15,91.35-98.56,16.06-15.63,32.55-30.9,50.28-44.67l6.57-5.26,6.81-5c4.57-3.26,9-6.65,13.69-9.8,9.45-6.06,18.74-12.38,28.67-17.66,9.64-5.8,19.92-10.36,30-15.3,5.13-2.28,10.4-4.23,15.6-6.37l7.82-3.13,8-2.72c2.65-.95,5.34-1.77,8.06-2.51s5.4-1.58,8.12-2.29c5.49-1.24,10.94-2.68,16.51-3.53,5.53-1.12,11.14-1.68,16.73-2.35,2.8-.3,5.63-.36,8.44-.55l4.22-.25,4.23,0c22.53-.14,45.29,4.51,65.59,14.54l7.53,3.9,7.18,4.51c1.19.77,2.41,1.48,3.57,2.29l3.37,2.57c2.24,1.73,4.55,3.37,6.71,5.18,4.14,3.84,8.53,7.45,12.39,11.55s7.7,8.24,11.29,12.58c14.4,17.38,26,36.76,36.79,56.42s20.88,39.67,30.84,59.74c19.92,40.13,39,80.63,60.56,119.85,10.76,19.6,22.12,38.87,34.42,57.52a368.73,368.73,0,0,0,41,52.76c30.47,32.61,67.53,58.73,107.6,78.26s83.45,32.22,127.56,39c88.36,13.66,179.56,4.64,264.83-21.72a636,636,0,0,0,62.86-23.16c5.13-2.22,10.23-4.48,15.3-6.83s10.06-4.83,15-7.34c9.9-5.16,19.69-10.53,29.33-16.2,19.32-11.26,38.26-23.2,57.75-34.28s39.63-21.18,60.83-28.65c2.62-1,5.31-1.84,8-2.64l8.06-2.44q8.16-2.1,16.42-3.85l8.32-1.36a84.13,84.13,0,0,1,8.35-1.13l8.4-.73c2.8-.22,5.59-.59,8.41-.54,22.47-.88,45,1.55,66.94,6,44.07,8.93,86,25.45,128,40.6,21,7.66,42.21,14.75,63.76,20.86l64.38,19c43.06,12.17,86.44,23.28,130.4,31.59,43.91,8.64,88.51,13,133.1,16.64s89.31,5.83,134.05,7c89.48,2.32,179,.14,268.44-4.25-89.39,4.64-179,7.08-268.46,5q-67.12-1.56-134.12-6.62c-44.61-3.51-89.28-7.76-133.29-16.28-44-8.24-87.48-19.35-130.57-31.47l-64.43-18.93c-21.54-6.08-42.84-13.19-63.87-20.82-42.09-15.13-83.92-31.57-127.77-40.41-21.87-4.4-44.21-6.78-66.49-5.88a83,83,0,0,0-8.33.54l-8.32.73a82.16,82.16,0,0,0-8.27,1.13l-8.25,1.35q-8.16,1.76-16.25,3.83l-8,2.43c-2.67.79-5.33,1.6-7.93,2.62-21,7.44-41,17.54-60.46,28.56s-38.35,23-57.7,34.32q-14.48,8.54-29.43,16.29c-5,2.53-10.06,5-15.11,7.4s-10.21,4.63-15.36,6.86A637.07,637.07,0,0,1,1889,734.15c-85.56,26.53-177.1,35.69-265.92,22.06-44.34-6.79-87.85-19.66-128.35-39.12-40.35-19.63-77.73-45.91-108.49-78.76-1.91-2.06-3.88-4.07-5.75-6.17l-5.51-6.37c-3.77-4.19-7.12-8.71-10.65-13.08s-6.66-9.05-10-13.57l-9.46-13.92c-12.38-18.72-23.8-38.05-34.61-57.69-21.61-39.3-40.81-79.82-60.72-119.91-9.93-20.05-20.09-40-30.73-59.66s-22.22-38.82-36.41-56q-5.31-6.44-11.12-12.42c-3.81-4.06-8.1-7.58-12.16-11.35-2.12-1.78-4.38-3.38-6.57-5.08l-3.3-2.52c-1.13-.8-2.33-1.5-3.49-2.25l-7-4.43-7.37-3.82c-19.85-9.83-42.13-14.42-64.3-14.3l-4.16,0-4.15.23c-2.77.19-5.55.25-8.31.54-5.52.65-11.05,1.2-16.51,2.3-5.49.83-10.88,2.25-16.3,3.47-2.7.7-5.36,1.51-8,2.26s-5.34,1.54-8,2.47l-7.91,2.68-7.76,3.11c-5.15,2.11-10.39,4-15.48,6.3-10,4.89-20.23,9.41-29.8,15.16-9.86,5.23-19.1,11.5-28.5,17.51-4.61,3.13-9.07,6.5-13.61,9.73l-6.77,4.92-6.55,5.23c-17.65,13.68-34.08,28.88-50.11,44.44-32,31.28-61.34,65.11-91.33,98.36q-22.46,25-45.91,49.08c-15.66,16-31.7,31.67-47.94,47.1-65.19,61.51-134.67,118.26-206.17,172.19-71.62,53.76-145.23,105-222.32,150.71C144.25,919,63.55,958.78-20.86,988.88c-20.94,8-42.4,14.41-63.7,21.29-10.7,3.3-21.55,6.08-32.32,9.14l-16.18,4.5c-5.42,1.39-10.89,2.6-16.33,3.91-10.91,2.54-21.78,5.19-32.71,7.64l-33,6.35c-11,2.32-22.07,3.79-33.13,5.46l-16.61,2.48-8.31,1.24-8.34.88-33.4,3.5c-5.56.7-11.16.82-16.75,1.21l-16.76,1-16.75,1c-5.6.16-11.2.16-16.79.25-11.19.07-22.39.43-33.57.25A997.29,997.29,0,0,1-549.14,1047.2Z" transform="translate(549.31 -9.52)"/><path class="cls-9" d="M-549.23,1079.9a953.89,953.89,0,0,0,135.76,13.18c11.37.07,22.75-.15,34.13-.21,5.68-.11,11.38.06,17-.3l17-1,17-1,8.52-.49c2.83-.23,5.66-.57,8.49-.86l33.93-3.58c90.27-11.53,179-34.24,264.11-66.35l16-5.92c5.3-2,10.53-4.28,15.8-6.41L50.2,994l31.08-14.07c5.16-2.38,10.4-4.6,15.51-7.11l15.29-7.56c10.16-5.1,20.46-9.95,30.51-15.26l30.06-16.14c20-10.75,39.68-22.27,59.18-34,77.84-47.14,152-100.18,222.92-157.27S593,624.06,655.3,557.69c31.2-33.13,60.69-67.8,89-103.46,14.18-17.8,28.34-35.64,42.74-53.3s29.22-35,44.68-51.74c31-33.32,64.92-64.57,104-88.36L943,256.3c2.44-1.49,5-2.73,7.52-4.11l15.13-8.05,15.66-6.95c2.63-1.14,5.2-2.38,7.87-3.42l8-3a223.71,223.71,0,0,1,33-9.22c5.58-1.29,11.31-1.84,17-2.67,5.72-.41,11.43-1,17.18-.92,5.74-.23,11.47.37,17.2.71,5.68.87,11.41,1.42,17,2.92,5.66,1.09,11.07,3.08,16.55,4.83,5.27,2.29,10.72,4.24,15.68,7.18,2.49,1.43,5.16,2.58,7.51,4.25l7.18,4.78c2.42,1.56,4.53,3.53,6.81,5.28a70.16,70.16,0,0,1,6.54,5.62,180.74,180.74,0,0,1,23,25.58c13.73,18.4,24.54,38.68,34.43,59.21s19.11,41.39,28.14,62.31c18,41.83,35.18,84,54.71,125.12,9.78,20.53,20.15,40.78,31.49,60.47s23.5,38.9,38,56.35a366.75,366.75,0,0,0,104,86.56c39.49,22.4,82.77,37.73,127.15,47.14a532.23,532.23,0,0,0,135.46,10.15,573,573,0,0,0,198-46.19A470.3,470.3,0,0,0,1993.61,709c19.42-11.81,38.29-24.56,57.64-36.59s39.18-23.48,60.36-32.11,43.49-14.61,66.31-16.31c22.79-1.88,45.77-.14,68.2,3.94,45,8.22,87.65,25.09,130.32,40.68,42.52,16.26,86.63,27.68,130.21,40.77,43.79,12.32,88,23.45,132.69,31.7,22.36,4.12,44.86,7.55,67.47,9.93,11.31,1.23,22.65,2.12,34,3.2l34,2.62c45.4,3.12,90.88,4.88,136.38,5.62,91,1.49,182-1.33,273-5.49-90.91,4.41-181.94,7.49-273,6.25-45.51-.61-91-2.25-136.45-5.24l-34.05-2.53c-11.33-1-22.68-1.9-34-3.1-22.65-2.33-45.2-5.7-67.6-9.76-44.82-8.17-89-19.31-132.87-31.59-43.59-13-87.77-24.44-130.38-40.68-42.71-15.57-85.28-32.35-130-40.47-22.31-4-45.11-5.74-67.7-3.85-22.61,1.7-44.74,7.58-65.68,16.22s-40.74,20-60,32-38.16,24.79-57.62,36.66a472.1,472.1,0,0,1-60.7,31.47,575.6,575.6,0,0,1-198.77,46.57,534.73,534.73,0,0,1-136.12-10.06c-44.62-9.42-88.17-24.8-128-47.32a369.38,369.38,0,0,1-104.83-87.11c-14.65-17.58-27-37-38.34-56.71s-21.84-40.07-31.65-60.65c-19.62-41.17-36.82-83.38-54.87-125.17-9-20.9-18.26-41.69-28-62.22s-20.54-40.58-34.07-58.74a177.21,177.21,0,0,0-22.56-25.21,68.45,68.45,0,0,0-6.4-5.5c-2.23-1.71-4.29-3.65-6.66-5.18l-7-4.68c-2.3-1.64-4.9-2.76-7.34-4.16-4.84-2.89-10.17-4.79-15.32-7-5.36-1.7-10.65-3.67-16.19-4.73-5.44-1.48-11.07-2-16.63-2.88-5.62-.34-11.24-.94-16.88-.71-5.65-.14-11.27.49-16.9.88-5.58.82-11.22,1.35-16.73,2.62a221.67,221.67,0,0,0-32.65,9.08l-8,3c-2.64,1-5.19,2.26-7.79,3.38l-15.55,6.88-15,8c-2.49,1.36-5.05,2.58-7.47,4.07l-7.22,4.49c-38.84,23.57-72.61,54.61-103.56,87.8-15.42,16.7-30.16,34-44.63,51.58S760.4,438,746.19,455.76c-28.34,35.65-57.93,70.38-89.19,103.52-62.42,66.41-130,127.88-201,184.94S310.73,854.31,232.76,901.42c-19.53,11.71-39.19,23.23-59.27,34l-30.11,16.13c-10.08,5.31-20.39,10.15-30.57,15.25L97.5,974.33c-5.12,2.5-10.36,4.73-15.53,7.1L50.83,995.49l-31.6,13c-5.28,2.13-10.52,4.38-15.83,6.41l-16,5.88c-85.3,31.91-174.18,54.4-264.55,65.68l-34,3.49c-2.83.28-5.65.62-8.49.84l-8.52.47-17.05.94-17,.93c-5.68.35-11.38.16-17.07.26-11.38,0-22.76.21-34.14.1A953.83,953.83,0,0,1-549.23,1079.9Z" transform="translate(549.31 -9.52)"/><path class="cls-9" d="M-549.31,1112.6a875.54,875.54,0,0,0,137.95,14.84l34.72.29c11.56-.32,23.13-.9,34.69-1.34,11.58-.23,23.08-1.62,34.62-2.55l17.29-1.53c5.76-.49,11.48-1.47,17.22-2.17,46-5.45,91.41-14.91,136.2-26.51l16.77-4.44,8.39-2.23c2.79-.78,5.54-1.68,8.31-2.51L-70,1074.28c11-3.57,21.89-7.53,32.83-11.27,5.45-1.94,11-3.7,16.36-5.79L-4.58,1051l16.19-6.26,8.09-3.13,8-3.4,31.94-13.6c10.57-4.69,21-9.71,31.52-14.55,5.23-2.46,10.52-4.82,15.71-7.38l15.49-7.82,15.5-7.81c5.18-2.59,10.35-5.19,15.4-8l30.5-16.58c10.16-5.55,20-11.58,30.08-17.34l15-8.74,14.75-9.16c39.56-24.06,77.7-50.37,115.08-77.67l27.83-20.75,27.27-21.49c9.18-7,18-14.58,26.89-22s17.91-14.67,26.52-22.41a1714.42,1714.42,0,0,0,194.66-197.7l22-26.85,21.26-27.46c14.1-18.35,27.58-37.18,41-56,26.9-37.7,53.82-75.51,83.69-111,7.68-8.7,15.09-17.64,23.19-26,4-4.18,7.84-8.56,12-12.57l12.48-12.15c2-2.06,4.21-4,6.41-5.89l6.55-5.74c4.37-3.82,8.65-7.76,13.32-11.22l13.74-10.72c4.72-3.39,9.58-6.58,14.37-9.88l7.21-4.89,7.53-4.39c5.05-2.89,10-6,15.12-8.68,10.5-5,20.76-10.5,31.68-14.61,21.7-8.28,44.71-14,68.13-14.16a133.08,133.08,0,0,1,34.76,3.84,118.55,118.55,0,0,1,32.51,13l3.83,2.15c1.23.78,2.41,1.65,3.62,2.48,2.39,1.68,4.84,3.3,7.18,5.05,4.4,3.86,9.15,7.34,13.08,11.69,2,2.1,4.12,4.15,6.11,6.29s3.86,4.39,5.65,6.69c3.71,4.51,7.11,9.25,10.41,14.06,13.08,19.34,23,40.51,32.1,61.85s17.39,43,25.51,64.71c16.25,43.42,31.47,87.19,49.09,130,8.81,21.4,18.2,42.56,28.56,63.23s21.54,40.93,35,59.67a349,349,0,0,0,45.4,52.09,382.67,382.67,0,0,0,54.32,42.76,438.63,438.63,0,0,0,126.36,55.33c89.34,23.71,185,22,274-2.7a511.25,511.25,0,0,0,65.32-23c10.64-4.5,21.07-9.49,31.39-14.69,10.22-5.36,20.28-11,30-17.22,39.18-24.45,75.42-54,117.44-74.24,2.58-1.34,5.24-2.52,7.92-3.63l8-3.44c5.42-2.08,10.91-4,16.42-5.86a201.44,201.44,0,0,1,34.06-7.41c23.07-3.06,46.54-2.16,69.46,1.43,46,7.25,89.52,24.39,132.84,40.47,43.17,16.77,87.83,29.12,132.34,41.85,44.57,12.49,89.54,23.69,135.09,31.87,22.77,4.1,45.68,7.42,68.7,9.71s46.14,3.79,69.24,5.25c46.22,2.66,92.52,3.94,138.81,4.24,92.62.64,185.2-2.84,277.73-6.76-92.52,4.17-185.09,7.91-277.73,7.52-46.31-.17-92.63-1.32-138.88-3.86-23.12-1.4-46.23-2.87-69.3-5.06s-46-5.49-68.84-9.53c-45.63-8.12-90.65-19.32-135.27-31.77-44.51-12.68-89.27-25-132.52-41.76-43.35-16.06-86.76-33.1-132.5-40.25-22.79-3.55-46.06-4.42-68.91-1.36-22.88,2.85-45.07,10.08-65.78,20.22-41.71,20.1-77.87,49.64-117.17,74.24-9.8,6.22-19.91,11.94-30.19,17.34-10.36,5.23-20.83,10.25-31.51,14.79a515.8,515.8,0,0,1-65.59,23.19c-89.35,24.92-185.4,26.71-275.25,3a441.35,441.35,0,0,1-127.17-55.55,386.68,386.68,0,0,1-54.76-43,351.85,351.85,0,0,1-45.8-52.46c-13.62-18.88-24.92-39.3-35.32-60s-19.86-42-28.71-63.4c-17.7-42.89-33-86.67-49.24-130-8.09-21.69-16.48-43.27-25.4-64.62s-18.87-42.26-31.76-61.36c-3.25-4.75-6.6-9.43-10.25-13.87-1.76-2.27-3.68-4.4-5.55-6.58s-4-4.11-6-6.17c-3.85-4.28-8.5-7.68-12.79-11.46-2.29-1.71-4.68-3.29-7-4.95-1.18-.8-2.33-1.66-3.53-2.43l-3.74-2.1a116.46,116.46,0,0,0-31.74-12.72,130.48,130.48,0,0,0-34-3.78c-23,.16-45.69,5.74-67.16,13.9-10.79,4.06-21,9.52-31.4,14.45-5.09,2.69-10,5.74-15,8.6l-7.48,4.35L933.43,252c-4.75,3.26-9.58,6.43-14.27,9.78L905.5,272.38c-4.64,3.43-8.9,7.35-13.25,11.14l-6.51,5.7c-2.2,1.88-4.35,3.81-6.39,5.86l-12.43,12.07c-4.18,4-8,8.35-12,12.5-8.08,8.28-15.47,17.18-23.13,25.84-29.8,35.39-56.72,73.12-83.66,110.8-13.5,18.83-27,37.67-41.15,56l-21.32,27.48-22.06,26.87A1716.56,1716.56,0,0,1,468.5,764.45c-8.62,7.74-17.69,15-26.56,22.42s-17.75,14.9-26.94,22l-27.33,21.49-27.88,20.75c-37.44,27.29-75.65,53.59-115.28,77.64l-14.77,9.16-15,8.73c-10.05,5.77-19.95,11.79-30.12,17.34l-30.55,16.56c-5.06,2.83-10.24,5.42-15.43,8l-15.52,7.81-15.52,7.81c-5.2,2.56-10.49,4.91-15.74,7.38-10.52,4.83-21,9.84-31.56,14.53l-32,13.59-8,3.39-8.11,3.13L-4,1052.37l-16.22,6.23c-5.41,2.08-10.93,3.82-16.4,5.75-11,3.72-21.87,7.65-32.89,11.19l-33.26,10.09c-2.77.83-5.53,1.71-8.32,2.49l-8.4,2.21-16.81,4.4c-44.86,11.49-90.36,20.83-136.39,26.16-5.75.69-11.46,1.65-17.24,2.13l-17.3,1.48c-11.55.9-23.06,2.26-34.65,2.45-11.57.41-23.14,1-34.72,1.26l-34.73-.39A875.42,875.42,0,0,1-549.31,1112.6Z" transform="translate(549.31 -9.52)"/><path class="cls-9" d="M-549.23,1102.38l33.63,4.91,8.4,1.22c2.8.43,5.6.85,8.43,1l16.92,1.47,16.93,1.47,8.46.73c2.82.27,5.65.23,8.48.36l34,1c5.65.3,11.32.13,17,0l17-.38,17-.37c5.66,0,11.3-.71,16.95-1l33.88-2.45,33.72-4c5.62-.71,11.25-1.28,16.85-2.11l16.75-2.79c11.16-1.94,22.37-3.56,33.48-5.75,22.13-4.76,44.4-9,66.26-14.9l16.46-4.17,8.23-2.08c2.74-.73,5.44-1.58,8.16-2.36l32.58-9.58,8.15-2.41,8-2.69,16.11-5.37c10.71-3.67,21.56-6.94,32.11-11.06l31.84-11.82c5.33-1.9,10.56-4.09,15.8-6.23L48,1016.61c21.09-8.27,41.63-17.81,62.36-26.94,41.05-19.1,81.62-39.3,121.28-61.16a1755.42,1755.42,0,0,0,226.89-149Q512.28,737.9,562.45,692t96.39-95.69q23.07-24.93,45-50.85c14.65-17.26,28.76-35,42.81-52.75,28-35.6,55.87-71.45,86.32-105.14,3.76-4.25,7.74-8.29,11.6-12.45s7.75-8.3,11.85-12.23l12.1-12,12.58-11.49,6.31-5.72,6.57-5.43c4.4-3.59,8.71-7.3,13.19-10.79,9.18-6.68,18.1-13.77,27.8-19.71l7.15-4.65a83,83,0,0,1,7.27-4.44l14.88-8.35c1.24-.69,2.46-1.41,3.73-2.06l3.85-1.83,7.72-3.64c5.16-2.37,10.2-5,15.55-7,21.05-8.65,43.36-14.49,66.15-16.25a171,171,0,0,1,34.21,1.3,146.54,146.54,0,0,1,32.91,9.57,139.67,139.67,0,0,1,29.2,18c2.34,1.65,4.29,3.77,6.46,5.64s4.31,3.77,6.25,5.87c4,4.05,7.79,8.35,11.46,12.72,14.58,17.59,26.18,37.36,36.54,57.56s19.78,40.86,29,61.57c18.45,41.43,35.74,83.35,55.58,124.05,9.91,20.35,20.46,40.38,32,59.81a360.89,360.89,0,0,0,39.24,55.08c7.33,8.58,15.3,16.59,23.4,24.44,8.31,7.63,16.78,15.1,25.75,21.95a381.25,381.25,0,0,0,56.89,36.59,447.66,447.66,0,0,0,62.18,26.75,498,498,0,0,0,65.46,17.35c44.36,8.7,89.83,11.38,135,9A582.32,582.32,0,0,0,1876.25,774,577.75,577.75,0,0,0,1940,751c10.4-4.43,20.63-9.25,30.7-14.37,5-2.6,10-5.35,14.9-8.06s9.81-5.62,14.64-8.57c19.4-11.65,38.33-24.11,57.78-35.79s39.55-22.46,60.84-30.5,43.78-13.12,66.55-13.83c22.77-.91,45.53,1.93,67.66,7,44.43,10,86.28,28.08,128.39,44.59,21.06,8.36,42.31,16.06,63.93,22.86,21.55,7,43.13,13.85,64.81,20.39,43.35,13.07,87.14,24.84,131.57,33.57q33.3,6.57,67,10.59c11.25,1.25,22.52,2.33,33.78,3.46,11.29.94,22.56,2,33.85,2.85,45.17,3.43,90.43,5.43,135.72,6.31,90.59,1.76,181.22-1.1,271.69-5.94-90.46,5.09-181.08,8.21-271.7,6.7-45.3-.75-90.6-2.63-135.79-5.93-11.3-.79-22.59-1.84-33.88-2.75-11.28-1.1-22.55-2.16-33.82-3.37q-33.79-3.88-67.2-10.43c-44.51-8.66-88.35-20.42-131.75-33.46-21.71-6.52-43.31-13.37-64.87-20.33-21.61-6.78-43-14.5-64.05-22.83-42.15-16.49-84-34.53-128.15-44.39-22-5-44.61-7.77-67.16-6.85-22.57.73-44.82,5.77-65.9,13.77s-41.12,18.69-60.47,30.39-38.31,24.14-57.74,35.85c-4.84,3-9.79,5.74-14.68,8.61s-9.94,5.5-15,8.12q-15.2,7.74-30.83,14.46a576.76,576.76,0,0,1-64,23.12,584.16,584.16,0,0,1-133.92,23c-45.32,2.39-91-.25-135.58-9a500.64,500.64,0,0,1-65.83-17.38A450.64,450.64,0,0,1,1479,746a383.44,383.44,0,0,1-57.33-36.79c-9-6.9-17.59-14.42-26-22.1-8.18-7.91-16.22-16-23.63-24.62a363.71,363.71,0,0,1-39.58-55.46c-11.66-19.5-22.27-39.6-32.23-60-19.93-40.8-37.28-82.73-55.73-124.1-9.2-20.7-18.71-41.26-28.89-61.46s-21.76-39.69-36.12-57c-3.62-4.31-7.32-8.55-11.28-12.53-1.91-2.08-4.08-3.85-6.13-5.77s-4-3.91-6.32-5.53a136.55,136.55,0,0,0-28.53-17.57,143,143,0,0,0-32.17-9.39,168.21,168.21,0,0,0-33.57-1.31,216.08,216.08,0,0,0-65.31,16c-5.29,1.95-10.29,4.58-15.42,6.93l-7.66,3.6-3.83,1.8c-1.25.65-2.46,1.37-3.7,2.05L950.82,291c-2.5,1.32-4.87,2.84-7.23,4.4l-7.1,4.61c-9.64,5.9-18.5,12.93-27.64,19.56-4.46,3.47-8.74,7.16-13.12,10.72l-6.54,5.39-6.28,5.69L870.38,352.8l-12.07,11.92c-4.08,3.91-7.93,8-11.81,12.17s-7.82,8.17-11.58,12.4c-30.39,33.56-58.23,69.34-86.3,104.92C734.55,512,720.4,529.71,705.7,547S676,581.24,660.55,597.87q-46.23,49.92-96.62,95.73-50.22,45.89-104.12,87.5a1758.49,1758.49,0,0,1-227.28,149c-39.72,21.85-80.35,42-121.46,61.11-20.75,9.11-41.33,18.64-62.44,26.9l-15.75,6.4c-5.25,2.14-10.48,4.32-15.82,6.22l-31.89,11.77c-10.57,4.1-21.44,7.35-32.17,11l-16.14,5.33-8.07,2.67-8.16,2.38-32.64,9.5c-2.73.78-5.43,1.62-8.17,2.34l-8.25,2.06-16.49,4.13c-21.89,5.89-44.19,10-66.36,14.73-11.12,2.16-22.34,3.76-33.51,5.66l-16.77,2.75c-5.61.81-11.25,1.36-16.87,2.06l-33.76,3.94-33.91,2.36c-5.65.31-11.29,1-17,1l-17,.33-17,.32c-5.66.13-11.33.28-17,0l-34-1.15c-2.83-.13-5.67-.1-8.49-.38l-8.46-.75-16.93-1.52-16.92-1.52c-2.83-.19-5.62-.62-8.42-1l-8.41-1.25Z" transform="translate(549.31 -9.52)"/><path class="cls-9" d="M-549.14,1092.17l33,4.14c5.51.62,11,1.54,16.52,1.92l16.6,1.13,16.59,1.14c5.54.34,11.06.9,16.61.84l33.26.49c44.33-.47,88.71-2.93,132.63-9.26l16.49-2.13c5.5-.7,10.94-1.81,16.41-2.69l32.78-5.62,32.55-6.84,16.27-3.44,16.14-4,32.26-8.09,32-9.15,16-4.61,15.84-5.07,31.66-10.19C58.37,1002,140.29,967.57,220,928.59A1800.35,1800.35,0,0,0,449.8,795c36.64-25,72-51.76,106.39-79.81s67.48-57.58,99.37-88.4q23.9-23.13,46.79-47.27c15.27-16.07,30-32.68,44.61-49.34,29.19-33.41,57.94-67.29,89-99.09,3.82-4,7.79-7.92,11.77-11.8s7.88-7.84,12-11.62c8.21-7.49,16.27-15.16,24.87-22.22,8.34-7.35,17.23-14.05,26-20.88,4.37-3.43,9.06-6.44,13.58-9.68s9.07-6.46,13.87-9.28l14.19-8.79c4.81-2.8,9.77-5.33,14.65-8l7.35-4c2.48-1.27,5-2.35,7.57-3.54l15.18-7a267.92,267.92,0,0,1,31.55-11l4-1.16,4.07-1c2.72-.62,5.43-1.3,8.16-1.88,5.5-.92,11-2.09,16.54-2.59,5.54-.79,11.13-1,16.72-1.28,2.79-.1,5.59.05,8.38.06l4.2.07,4.18.36a136.76,136.76,0,0,1,32.9,6.44,129.12,129.12,0,0,1,30.34,14.3l7,4.68c2.24,1.68,4.39,3.49,6.58,5.23a149.09,149.09,0,0,1,12.49,11.18c16,15.68,29.32,33.75,41.13,52.61s22.43,38.39,32.93,58c20.92,39.19,40.51,79,62.81,117.35,11.14,19.15,23,37.91,35.83,55.92,6.35,9.07,13.26,17.68,20.43,26.08,7.38,8.21,14.92,16.3,23.09,23.75,8,7.62,16.59,14.59,25.28,21.42,8.86,6.59,17.85,13,27.26,18.83a395.34,395.34,0,0,0,58.87,30.4c40.81,17.1,84.11,28,128,33.7s88.43,6.25,132.53,2.46a647.07,647.07,0,0,0,130.21-25.17,644,644,0,0,0,62.46-22.53,562,562,0,0,0,59.39-29.66c19.32-10.88,38.41-22.22,58.15-32.45,9.84-5.17,19.94-9.85,30.15-14.26,5.2-2,10.33-4.17,15.6-6s10.51-3.69,15.94-5a208.39,208.39,0,0,1,66.15-7.44,236.44,236.44,0,0,1,33.14,4c5.51.84,10.89,2.29,16.34,3.4,5.39,1.36,10.78,2.71,16.13,4.24,42.81,12.29,83.24,31,124.18,48,10.25,4.23,20.53,8.37,30.92,12.22s20.87,7.48,31.32,11.17c20.94,7.33,41.92,14.52,63,21.36,42.18,13.68,84.83,26,128.19,35.31,21.67,4.65,43.5,8.55,65.48,11.43s44,5.37,66.11,7.41q66.22,6.26,132.78,8.3c88.68,2.79,177.47.52,266-5.23-88.52,6-177.32,8.52-266,6-44.35-1.31-88.67-3.87-132.86-7.93-22.1-2-44.15-4.48-66.17-7.22s-43.91-6.67-65.63-11.26c-43.44-9.24-86.16-21.57-128.38-35.21-21.12-6.82-42.12-14-63.07-21.3-10.47-3.68-20.95-7.27-31.37-11.16s-20.72-8-31-12.2c-41-16.92-81.4-35.6-124-47.78-5.32-1.52-10.69-2.86-16.05-4.21-5.42-1.1-10.77-2.53-16.24-3.36a234.71,234.71,0,0,0-32.88-3.93,206.06,206.06,0,0,0-65.5,7.44c-5.38,1.28-10.55,3.27-15.81,4.95s-10.32,4-15.48,5.93c-10.14,4.4-20.18,9.06-30,14.22-19.66,10.21-38.73,21.55-58.06,32.47s-39.08,21.23-59.59,29.83a644.54,644.54,0,0,1-193.33,48.06c-44.26,3.85-89,3.49-133.08-2.34s-87.61-16.58-128.7-33.75a399.31,399.31,0,0,1-59.3-30.55c-9.49-5.84-18.56-12.32-27.5-19-8.76-6.87-17.42-13.89-25.51-21.57a333.35,333.35,0,0,1-23.31-23.94c-7.24-8.46-14.25-17.17-20.63-26.28-13-18.09-24.85-36.92-36-56.12-22.4-38.41-42.07-78.27-63-117.38-10.46-19.55-21.17-39-32.77-57.83s-24.92-36.62-40.64-52.1a147.2,147.2,0,0,0-12.28-11c-2.15-1.7-4.24-3.48-6.44-5.12l-6.83-4.59a126.21,126.21,0,0,0-29.66-14,133.9,133.9,0,0,0-32.22-6.34l-4.11-.36-4.12-.07c-2.75,0-5.5-.16-8.24-.06-5.5.28-11,.46-16.45,1.24-5.49.48-10.89,1.63-16.32,2.54l-8.06,1.85-4,.93-4,1.15a264.24,264.24,0,0,0-31.23,10.91L983,323.79c-2.5,1.18-5.05,2.25-7.51,3.5l-7.3,3.93c-4.85,2.65-9.78,5.16-14.56,7.93l-14.11,8.72c-4.77,2.8-9.25,6.05-13.79,9.21s-9.17,6.2-13.52,9.61c-8.75,6.78-17.59,13.44-25.91,20.76-8.56,7-16.6,14.64-24.78,22.1-4.06,3.76-8,7.71-11.93,11.56s-7.93,7.73-11.74,11.76c-31,31.68-59.77,65.5-89,98.9-14.68,16.65-29.41,33.28-44.73,49.36s-30.93,31.88-46.91,47.3q-47.94,46.26-99.6,88.43c-34.41,28-69.9,54.83-106.6,79.81A1801.08,1801.08,0,0,1,220.76,930.21C141,969.13,59,1003.57-25.08,1032.15l-31.72,10.11-15.86,5-16,4.57-32,9.06-32.31,8-16.16,4-16.3,3.4-32.59,6.75-32.83,5.53c-5.47.87-10.92,2-16.42,2.65l-16.52,2.08c-43.95,6.21-88.37,8.55-132.72,8.89l-33.27-.58c-5.55,0-11.08-.54-16.61-.9l-16.6-1.18-16.59-1.18c-5.53-.4-11-1.33-16.52-2Z" transform="translate(549.31 -9.52)"/><path class="cls-9" d="M-549.06,1082l32.44,3.4c5.41.52,10.81,1.25,16.23,1.59l16.29.8,16.29.81,8.14.4,4.08.2h4.07l32.62-.09c10.88.21,21.73-.67,32.59-1.15l16.28-.83,8.14-.41c2.72-.19,5.42-.5,8.12-.75l32.47-3.11,8.11-.8,8.08-1.11,16.15-2.23c86.23-11.64,170.81-33.25,253.74-59.26C6.15,1006,47.3,991.94,87.88,976.3c20.39-7.56,40.52-15.78,60.73-23.81,10.1-4,20.09-8.32,30.14-12.46s20.1-8.31,30.06-12.65c79.87-34.36,158-73.08,232.47-117.94a1529.36,1529.36,0,0,0,211-152.88q49.39-42.59,94.83-89.48c30.36-31.14,60.06-63,91.75-92.91,31.51-30,65.37-57.86,102.33-81.08,9.46-5.44,18.64-11.36,28.47-16.13,4.87-2.46,9.64-5.12,14.59-7.41l15-6.64A260.82,260.82,0,0,1,1061.81,344c21.59-3.35,43.91-3.6,65.37,1.29A141,141,0,0,1,1185.86,374a278.86,278.86,0,0,1,45.6,47c13.33,17.34,25.3,35.53,37.19,53.78,23.61,36.6,45.75,74.09,70.68,109.69a581,581,0,0,0,39.94,51.37c7.43,7.86,14.48,16.12,22.77,23.12,4,3.59,7.91,7.41,12.12,10.81l12.84,9.94c2.16,1.63,4.24,3.37,6.47,4.92l6.78,4.47,13.56,9,14.16,8c4.72,2.66,9.4,5.39,14.36,7.59l14.67,7,3.68,1.73,3.77,1.52,7.55,3c5,2,10,4.16,15.13,5.94l15.43,5.15,7.71,2.58,7.84,2.16,15.7,4.28c5.21,1.5,10.58,2.39,15.86,3.61s10.59,2.36,15.92,3.37l16.06,2.63c5.35.86,10.69,1.84,16.1,2.34,10.78,1.15,21.53,2.74,32.38,3.24,86.6,6.25,174.29-4.26,257.36-29.53,20.77-6.34,41.28-13.55,61.39-21.73s39.51-18,58.84-27.93,38.63-20.08,58.65-28.73,40.72-16,62.26-19.83a231.21,231.21,0,0,1,32.58-3.34,220.49,220.49,0,0,1,32.69,1.87c21.65,3,42.81,8.63,63.45,15.6,41.28,14.12,80.38,33.5,120.25,50.76,19.89,8.75,40.25,16.38,60.6,24.07s40.75,15.16,61.29,22.3c41.06,14.29,82.65,27.14,125,37,42.29,10.16,85.48,15.8,128.65,20.89q64.8,7.33,130,10.2a2175.33,2175.33,0,0,0,260.75-4.59,2173.89,2173.89,0,0,1-260.79,5.35q-65.19-2.7-130.12-9.83c-43.2-5-86.47-10.48-128.86-20.53-42.42-9.83-84.07-22.69-125.18-36.93-20.56-7.13-41-14.61-61.36-22.26s-40.75-15.29-60.69-24c-39.95-17.25-79-36.56-120.17-50.59-20.55-6.91-41.61-12.53-63.08-15.44a217.93,217.93,0,0,0-32.39-1.82,231,231,0,0,0-32.25,3.33c-21.32,3.87-41.89,11.14-61.78,19.76s-39.16,18.76-58.49,28.73-38.8,19.79-59,28.07-40.74,15.48-61.57,21.86c-83.32,25.43-171.27,36.08-258.23,29.89-10.9-.49-21.69-2.08-32.53-3.22-5.43-.5-10.79-1.48-16.17-2.34l-16.14-2.63c-5.35-1-10.66-2.25-16-3.36s-10.7-2.12-15.94-3.62l-15.79-4.28-7.88-2.17-7.76-2.58-15.53-5.17c-5.15-1.78-10.15-4-15.23-6l-7.6-3-3.8-1.52-3.7-1.74-14.78-7c-5-2.21-9.72-5-14.48-7.63l-14.27-8-13.68-9-6.84-4.51c-2.24-1.55-4.35-3.3-6.53-4.95l-13-10c-4.25-3.43-8.15-7.28-12.24-10.9-8.37-7.06-15.5-15.38-23-23.32a586.48,586.48,0,0,1-40.19-51.58c-25-35.71-47.25-73.2-70.84-109.72-11.83-18.21-23.79-36.43-37-53.6A276.42,276.42,0,0,0,1184,376.3a138.14,138.14,0,0,0-57.46-28.14c-21-4.82-43-4.6-64.29-1.32a258.11,258.11,0,0,0-62,18.63l-14.87,6.58c-4.92,2.27-9.66,4.91-14.5,7.35-9.77,4.72-18.9,10.6-28.31,16-36.77,23.05-70.52,50.71-102,80.65-31.64,29.8-61.35,61.61-91.76,92.74s-62.07,61.14-95.07,89.53A1532.18,1532.18,0,0,1,442.35,811.21C367.7,856.05,289.49,894.73,209.52,929c-10,4.33-20.05,8.44-30.09,12.63s-20.05,8.43-30.17,12.43c-20.23,8-40.38,16.22-60.79,23.76-40.62,15.6-81.8,29.71-123.24,43-83.07,25.8-167.77,47.17-254.09,58.57l-16.17,2.18-8.08,1.09-8.12.77-32.49,3c-2.71.24-5.41.54-8.13.72l-8.15.39-16.29.78c-10.87.45-21.72,1.3-32.6,1.06H-455.6l-4.07-.21-8.15-.43-16.29-.85-16.29-.85c-5.42-.35-10.82-1.1-16.23-1.63Z" transform="translate(549.31 -9.52)"/><path class="cls-9" d="M-549,1071.73c85,8.83,171,5.84,255.42-6.86,42.32-5.76,84.16-14.5,125.8-23.85,20.73-5.13,41.55-9.88,62.09-15.69,10.3-2.82,20.64-5.49,30.89-8.45l30.73-9c10.26-2.94,20.43-6.17,30.62-9.37l30.54-9.64c20.24-6.78,40.59-13.27,60.72-20.39,40.41-13.8,80.48-28.58,120.55-43.36,80-29.84,158.85-63,234.64-102.38A1464,1464,0,0,0,648.93,685.56c33.9-25.95,66.76-53.25,98.18-82.15s62.2-58.59,94.55-86.57c16.06-14.12,32.73-27.56,49.74-40.52,8.63-6.33,17.19-12.76,26.14-18.63,8.76-6.17,18-11.68,27-17.33,18.48-10.78,37.36-21,57.18-29.18a293.44,293.44,0,0,1,30-11.49c5.07-1.73,10.28-3.06,15.44-4.53,5.23-1.21,10.41-2.62,15.71-3.51a196.29,196.29,0,0,1,64.2-2.4,162.05,162.05,0,0,1,31.34,7.74,156.28,156.28,0,0,1,28.89,14.45,295,295,0,0,1,49.68,40.79c7.55,7.64,14.56,15.78,21.46,23.94s13.64,16.49,20.28,24.87c26.53,33.55,51.41,68.33,79.2,100.7,3.46,4,6.94,8.09,10.53,12s7.16,7.9,10.83,11.77c7.28,7.77,14.82,15.31,22.82,22.3l5.91,5.35c1,.88,2,1.8,3,2.65l3.16,2.43,12.64,9.71,3.18,2.42,3.33,2.18,6.68,4.37,6.67,4.36,3.34,2.18,3.48,1.95c9.31,5.13,18.46,10.59,28.22,14.87,4.84,2.21,9.57,4.66,14.48,6.7l14.83,5.91c2.48,1,4.94,2,7.43,2.92l7.58,2.52,15.15,5c5.09,1.55,10.26,2.85,15.39,4.28s10.22,3,15.46,4c41.49,9.7,84,14.62,126.64,15.78,5.32.28,10.65.21,16,.19l16,0c10.65-.25,21.3-.8,32-1.23,10.62-.91,21.27-1.5,31.87-2.66l31.74-3.94c21.18-2.52,42.14-6.58,63-11s41.5-9.88,62-16,40.68-12.88,60.52-20.66,39.18-16.82,58.6-25.72,38.95-17.69,59.15-24.83,41.14-12.36,62.52-14.39a211.31,211.31,0,0,1,64,3.79c21,4.41,41.4,11.1,61.32,18.89,39.89,15.56,77.77,35.5,116.62,53.16,19.41,8.84,39.25,16.76,59,24.84s39.66,15.83,59.66,23.29c40,14.93,80.58,28.34,122,38.85,20.69,5.22,41.52,9.86,62.59,13.29L2752.9,806l15.82,2.43c10.54,1.7,21.12,3.09,31.7,4.53q63.48,8.41,127.5,12a1775.32,1775.32,0,0,0,256-4,1776,1776,0,0,1-256,4.75q-64-3.37-127.6-11.65c-10.59-1.41-21.18-2.76-31.73-4.43l-15.85-2.4-15.8-2.66c-21.09-3.38-42-8-62.74-13.13-41.46-10.44-82.11-23.87-122.15-38.76-20-7.44-39.92-15.25-59.73-23.25s-39.63-16-59.11-24.81c-38.92-17.64-76.81-37.53-116.58-53-19.85-7.74-40.17-14.37-61-18.73a209.12,209.12,0,0,0-63.41-3.68c-21.16,2-41.93,7.29-62,14.33s-39.53,15.92-58.93,24.82-38.76,18-58.69,25.83-40.21,14.61-60.69,20.79-41.21,11.48-62.09,16.06-41.93,8.57-63.17,11.11l-31.83,4c-10.63,1.17-21.31,1.78-32,2.69-10.69.45-21.37,1-32.06,1.27l-16,.05c-5.34,0-10.69.11-16-.18-42.75-1.12-85.49-6-127.2-15.71-5.26-1-10.36-2.68-15.55-4s-10.35-2.74-15.47-4.29l-15.25-5-7.63-2.53c-2.51-.92-5-2-7.48-2.93l-14.93-5.94c-5-2-9.72-4.5-14.59-6.73-9.84-4.3-19.07-9.79-28.46-15l-3.51-2-3.37-2.2-6.73-4.4-6.74-4.39-3.37-2.2-3.2-2.44-12.78-9.79-3.19-2.44c-1-.87-2-1.79-3-2.68l-6-5.4c-8.1-7.06-15.68-14.64-23-22.44-3.69-3.88-7.34-7.8-10.89-11.81s-7.11-8-10.59-12.06c-27.93-32.48-52.88-67.26-79.37-100.72q-9.91-12.56-20.19-24.82c-6.88-8.15-13.81-16.22-21.28-23.79a292.08,292.08,0,0,0-49.13-40.43,153.32,153.32,0,0,0-28.29-14.17,159.14,159.14,0,0,0-30.73-7.63,193.4,193.4,0,0,0-63.25,2.32c-5.24.86-10.37,2.26-15.54,3.45-5.11,1.46-10.26,2.76-15.29,4.47a287.68,287.68,0,0,0-29.8,11.37c-19.7,8.09-38.48,18.25-56.88,28.95-9.05,5.62-18.2,11.08-26.92,17.22-8.92,5.84-17.45,12.24-26,18.53-17,12.9-33.61,26.27-49.65,40.35-32.31,27.89-63,57.65-94.58,86.43s-64.46,56.23-98.43,82.19A1467,1467,0,0,1,434,824.55C358,863.86,279.08,897,199,926.78,158.92,941.53,118.82,956.27,78.37,970c-20.14,7.1-40.51,13.57-60.77,20.33L-13,1000c-10.19,3.2-20.37,6.42-30.65,9.32l-30.77,9c-10.27,2.93-20.63,5.56-30.93,8.36-20.58,5.75-41.43,10.44-62.18,15.52-41.7,9.23-83.59,17.85-125.95,23.49C-378,1078.08-464,1080.81-549,1071.73Z" transform="translate(549.31 -9.52)"/><path class="cls-9" d="M-548.89,1061.51l31.44,2c5.24.31,10.48.72,15.73,1l15.75.18c10.5.08,21,.32,31.5.26l31.49-1.15c5.24-.23,10.5-.28,15.73-.67l15.71-1.26c10.46-.88,20.94-1.58,31.39-2.62l31.28-3.74c5.21-.66,10.44-1.17,15.63-2l15.56-2.42c10.37-1.64,20.76-3.16,31.12-4.9l31-5.81c5.16-1,10.33-1.89,15.47-2.94l15.4-3.33,30.79-6.66c40.86-9.71,81.63-19.89,122-31.55C29,973.2,108.87,947.18,188.94,921.7s159.51-53.08,236.43-86.87A1406.35,1406.35,0,0,0,645.88,713.7c34.83-23.44,68.86-48.13,101.39-74.68,32.66-26.4,64.39-54,97.38-80.09C861.08,545.8,878,533.24,895.12,521l13.06-8.87,6.54-4.42,6.67-4.22,13.36-8.41,13.65-7.95c2.28-1.3,4.53-2.67,6.84-3.94l7-3.69,14-7.34,14.28-6.76c2.39-1.11,4.75-2.28,7.16-3.34l7.29-3a327.54,327.54,0,0,1,60-19.88c20.64-4.37,41.86-6.69,63-5.13l4,.25,3.94.47c2.62.35,5.26.61,7.88,1,5.2,1,10.43,1.85,15.53,3.32,5.18,1.17,10.15,3.07,15.19,4.71,4.88,2.08,9.88,3.9,14.54,6.44a328.41,328.41,0,0,1,53.19,34.21c8.29,6.52,16.22,13.56,23.81,20.84s15.14,14.63,22.56,22.08c29.55,30,57.49,61.41,88.11,90.1,15.28,14.34,31.16,28.13,48.23,40.19,17.26,11.75,35.36,22.43,54.59,30.74,38.11,17.42,79,28.12,120.34,34.86a700.11,700.11,0,0,0,125.35,8.51c83.89-1.7,167.48-15,248.16-38.08,20.15-5.81,40.22-12.06,59.89-19.3s39-15.39,58.57-23.2S2131,636,2151.38,630.5a295,295,0,0,1,30.89-6.72c5.23-.65,10.46-1.42,15.71-1.85l7.9-.5,3.95-.24h4c21.12-.47,42.23,2.77,62.5,8.46a447.89,447.89,0,0,1,59.34,21.49c38.57,16.88,75.4,37.26,113.28,55.35,18.94,9,38.25,17.34,57.49,25.76s38.62,16.51,58.13,24.29c39,15.55,78.61,29.66,119.09,40.83,20.24,5.57,40.65,10.47,61.3,14.34,20.58,4.14,41.29,7.65,62,10.89q62.26,9.6,125.2,13.83a1496.66,1496.66,0,0,0,251.73-3.57,1497.24,1497.24,0,0,1-251.78,4.33q-62.9-4.12-125.32-13.46c-20.78-3.17-41.51-6.63-62.13-10.71-20.67-3.81-41.16-8.66-61.44-14.18-40.57-11.1-80.25-25.23-119.31-40.74-19.53-7.77-38.91-15.91-58.2-24.25s-38.57-16.69-57.57-25.73c-38-18.08-74.81-38.41-113.28-55.2a444.67,444.67,0,0,0-59.1-21.33c-20.14-5.64-41-8.82-62-8.33h-3.91l-3.92.25-7.82.5c-5.21.43-10.39,1.21-15.57,1.85a294.74,294.74,0,0,0-30.65,6.7c-20.21,5.53-39.88,12.89-59.36,20.71s-38.86,16-58.6,23.28-39.83,13.57-60,19.41c-80.85,23.2-164.61,36.64-248.76,38.43A702,702,0,0,1,1599.37,726c-41.52-6.73-82.66-17.43-121.08-35-19.38-8.34-37.66-19.1-55.1-30.95-17.29-12.19-33.22-26-48.59-40.4-30.78-28.78-58.79-60.22-88.27-90.09-7.4-7.44-14.84-14.85-22.47-22s-15.37-14.21-23.58-20.7a326.45,326.45,0,0,0-52.64-33.93c-4.57-2.5-9.47-4.28-14.25-6.33-4.94-1.6-9.81-3.48-14.89-4.63-5-1.45-10.15-2.3-15.26-3.28-2.57-.42-5.16-.67-7.74-1l-3.88-.47-3.9-.25c-20.81-1.56-41.77.7-62.19,5a323.4,323.4,0,0,0-59.5,19.67l-7.26,3c-2.4,1.06-4.75,2.22-7.12,3.32l-14.21,6.71L963.51,482l-7,3.67c-2.3,1.25-4.54,2.61-6.81,3.92l-13.6,7.89-13.32,8.36-6.65,4.2-6.52,4.4-13,8.82c-17.1,12.15-34,24.65-50.37,37.75-33,26-64.72,53.56-97.45,80-32.62,26.57-66.72,51.26-101.64,74.7a1407.82,1407.82,0,0,1-221,121.09c-77.05,33.75-156.61,61.31-236.71,86.7s-160,51.37-241,73.92c-40.42,11.54-81.24,21.6-122.15,31.2l-30.83,6.57-15.41,3.28c-5.15,1-10.33,1.93-15.49,2.9l-31,5.72c-10.36,1.71-20.77,3.2-31.15,4.81l-15.58,2.37c-5.19.78-10.43,1.27-15.64,1.91l-31.3,3.66c-10.46,1-21,1.67-31.42,2.52l-15.71,1.21c-5.24.38-10.5.41-15.75.63l-31.49,1.06c-10.51,0-21-.25-31.51-.37l-15.76-.22c-5.24-.24-10.48-.67-15.72-1Z" transform="translate(549.31 -9.52)"/><path class="cls-9" d="M-548.81,1051.29l31,1.31,15.52.63,15.53-.12,31.06-.29,31-1.67,15.5-.87,15.46-1.47,30.92-3,30.79-4.06,15.39-2,15.33-2.51,30.64-5,30.5-5.85,15.25-2.94c5.08-1,10.12-2.17,15.18-3.25l30.35-6.59c40.35-9.34,80.56-19.25,120.54-30.07,80.05-21.29,159.52-44.7,239.56-66.15s160-43.29,237.85-71.49q58.41-21,114.77-47.28t110-57.62q26.83-15.6,53-32.35,13.06-8.37,26-17c8.51-5.89,17.08-11.67,25.47-17.74,33.73-24,66.54-49.32,100.22-73.49s68.23-47.28,104.81-67c9-5.1,18.43-9.54,27.69-14.21,4.65-2.31,9.44-4.32,14.15-6.49s9.42-4.37,14.28-6.21c9.63-3.88,19.23-7.83,29.08-11.19,9.89-3.2,19.82-6.33,30-8.62,5-1.33,10.18-2.16,15.26-3.26,5.15-.76,10.26-1.79,15.45-2.29a228.64,228.64,0,0,1,31.17-1.8,203.27,203.27,0,0,1,31.14,2.78,181.13,181.13,0,0,1,30.23,8.13c9.77,3.8,19.12,8.23,28.46,12.8s18.49,9.5,27.43,14.82a294.94,294.94,0,0,1,26,17.28c8.41,6.09,16.6,12.45,24.78,18.84,32.56,25.7,63.65,53.14,97,77.59,8.38,6,16.8,12,25.46,17.67,2.17,1.4,4.3,2.87,6.49,4.22l6.66,3.92c4.48,2.54,8.8,5.38,13.41,7.69l13.84,6.9,3.46,1.73,3.56,1.5,7.13,3c9.41,4.25,19.23,7.45,28.95,10.93,39.23,12.94,80.17,20.23,121.27,24.32s82.63,4.15,123.92,2c82.62-4.55,164.63-18.68,244.56-40.07,20-5.37,39.87-11.11,59.48-17.68s39-13.75,58.7-20.36,39.54-12.67,59.93-16.73a247.53,247.53,0,0,1,62-4.63c20.8,1.06,41.32,5.67,61,12.39,19.73,6.51,38.8,14.78,57.51,23.72,37.43,17.9,73.28,38.77,110.23,57.41,74.38,36.22,149.87,71.11,229.19,95l14.9,4.34,15,4.06c10,2.59,20.13,4.79,30.22,7.08,20.2,4.53,40.54,8.43,60.92,12q61.18,10.65,123.18,15.63c82.52,6.69,165.73,6.27,248.07-3-82.31,9.56-165.54,10.24-248.13,3.8-41.3-3.27-82.47-8.28-123.32-15.27-20.41-3.56-40.77-7.4-61-11.86-10.11-2.26-20.23-4.44-30.28-7l-15-4-14.94-4.3c-39.74-11.87-78.54-26.62-116.68-42.84s-75.67-33.79-112.89-52c-37-18.63-72.9-39.47-110.26-57.28-18.66-8.9-37.68-17.12-57.31-23.57-19.52-6.66-39.84-11.2-60.43-12.22a245.87,245.87,0,0,0-61.52,4.65c-20.24,4.06-40,10.12-59.64,16.73s-39,13.85-58.68,20.42-39.59,12.38-59.6,17.78c-80,21.52-162.19,35.76-245,40.41-41.4,2.19-83,2.06-124.32-1.89s-82.4-11.33-121.91-24.32c-9.79-3.49-19.68-6.7-29.17-11l-7.19-3-3.59-1.51-3.49-1.74-14-7c-4.65-2.32-9-5.18-13.55-7.75l-6.73-3.95c-2.21-1.36-4.35-2.83-6.53-4.24-8.72-5.65-17.18-11.66-25.61-17.73-33.52-24.52-64.68-52-97.16-77.56-8.15-6.38-16.31-12.73-24.68-18.79a293.9,293.9,0,0,0-25.71-17.16c-8.86-5.28-18-10.14-27.21-14.73s-18.65-9-28.18-12.71a179,179,0,0,0-29.68-8,200.73,200.73,0,0,0-30.67-2.77A228.19,228.19,0,0,0,1099,484c-5.12.49-10.18,1.51-15.28,2.26-5,1.08-10.13,1.9-15.11,3.21-10.07,2.26-19.92,5.35-29.73,8.52s-19.33,7.24-28.91,11.09c-4.84,1.82-9.49,4.08-14.22,6.16s-9.46,4.15-14.09,6.45c-9.23,4.64-18.58,9-27.59,14.12-36.45,19.56-70.92,42.6-104.59,66.66S783,651.87,749.18,675.87c-8.4,6.07-17,11.86-25.54,17.75s-17.3,11.43-26,17Q671.41,727.37,644.5,743q-53.81,31.18-110.19,57.6-56.37,26.26-115,47.23c-78,28.16-158,50.06-238.09,71.29S21.7,963.82-58.41,985c-40,10.71-80.29,20.5-120.68,29.72l-30.38,6.5c-5.07,1.06-10.12,2.2-15.2,3.21l-15.27,2.89-30.53,5.76-30.68,4.94-15.33,2.48-15.41,2-30.82,4-30.94,2.87-15.47,1.42-15.51.83-31,1.57-31.07.2-15.53.08-15.52-.68Z" transform="translate(549.31 -9.52)"/><path class="cls-9" d="M-548.73,1041.07l30.7.65,15.34.31,15.34-.42,30.69-.85,30.62-2.18,15.31-1.09,15.25-1.67,30.51-3.35,30.39-4.34,15.19-2.19c5.06-.78,10.09-1.71,15.13-2.57,80.74-13.55,160.45-32.49,239.79-52.64s158.52-41.08,238.55-58.52c80-17.25,160.28-33.72,239-56.26,39.32-11.26,78.21-24.06,116.33-38.9s75.55-31.44,112.18-49.65,72.56-37.87,107.28-59.48,68.63-44.59,103.06-66.78S921.34,597.55,958,579.08c18.21-9.42,37-17.77,55.92-25.6,9.59-3.64,19.06-7.58,28.82-10.82s19.56-6.27,29.55-8.71a294.76,294.76,0,0,1,60.93-9c20.56-.65,41.31,1.14,61.26,6.52,10,2.72,19.61,6.27,29.23,9.77s19.21,7.21,28.65,11.25c19,7.91,36.85,18.27,54.55,28.53,35.34,20.78,69.47,43.46,105.34,63.06,9,4.89,18,9.63,27.19,14.1,4.55,2.34,9.29,4.19,13.92,6.31l7,3.09c2.34,1,4.77,1.81,7.14,2.73l14.35,5.29,14.61,4.52c4.85,1.61,9.8,2.83,14.75,4.07s9.86,2.6,14.85,3.68c39.88,8.74,80.66,13.23,121.49,14.64A1050.51,1050.51,0,0,0,1770,699c81.49-7,162.26-21.61,241.7-41.08,19.86-4.91,39.67-10,59.27-15.83s39.15-11.93,58.91-17.39,39.76-10.22,60.15-12.8a249.63,249.63,0,0,1,61.5-.69c20.44,2.46,40.38,8.17,59.46,15.66a578.92,578.92,0,0,1,55.89,25.63c36.41,18.85,71.37,40.24,107.45,59.5,72.55,37.73,146.25,74.1,224.08,99.58,9.71,3.19,19.5,6.16,29.32,9s19.78,5.18,29.69,7.73,19.92,4.64,29.87,7c10,2.19,20,4.16,30.05,6.25q60.26,11.67,121.45,17.48c81.45,7.68,163.8,7.72,245.06-2.49-81.23,10.47-163.61,10.68-245.13,3.25q-61.16-5.62-121.6-17.12c-10-2.06-20.08-4-30.09-6.16-10-2.32-20-4.38-29.93-6.91s-19.9-4.84-29.76-7.65-19.66-5.75-29.4-8.93c-78-25.4-151.81-61.75-224.45-99.42-36.18-19.26-71.15-40.61-107.5-59.37a575.61,575.61,0,0,0-55.72-25.49c-19-7.44-38.74-13.06-59-15.47a246.84,246.84,0,0,0-61,.75c-20.25,2.58-40.16,7.33-59.85,12.8s-39.21,11.64-58.85,17.45-39.48,11-59.35,15.91c-79.53,19.59-160.38,34.29-242,41.41a1053.43,1053.43,0,0,1-122.83,3.67c-41-1.36-81.91-5.82-122-14.57-5-1.08-10-2.47-14.94-3.69s-10-2.47-14.85-4.08l-14.72-4.53-14.47-5.32c-2.39-.92-4.84-1.71-7.2-2.74l-7-3.11c-4.67-2.13-9.48-4-14-6.36-9.23-4.47-18.33-9.23-27.33-14.13-36-19.64-70.23-42.3-105.48-63-17.69-10.27-35.35-20.57-54.17-28.41-9.37-4-18.9-7.7-28.49-11.22s-19.21-7.06-29-9.73c-19.61-5.31-40.07-7.1-60.39-6.48a292,292,0,0,0-60.35,8.81c-9.9,2.41-19.67,5.36-29.33,8.61s-19.13,7.13-28.68,10.74c-18.88,7.78-37.57,16.07-55.73,25.44-36.53,18.37-71.46,39.76-105.92,61.82S785,688.44,750.13,710s-70.87,41.21-107.54,59.47-74.21,34.81-112.41,49.62S453,846.7,413.61,857.94c-78.81,22.48-159.13,38.87-239.15,56-80,17.33-159.14,38.35-238.57,58.22s-159.21,38.61-240,51.92c-5,.84-10.08,1.76-15.14,2.53l-15.2,2.13-30.41,4.25-30.54,3.26-15.27,1.63-15.31,1-30.64,2.08-30.69.76-15.35.38-15.35-.37Z" transform="translate(549.31 -9.52)"/><path class="cls-9" d="M-548.64,1030.85H-503l15.2-.72,30.39-1.43,30.3-2.67,15.15-1.34,15.1-1.86,30.18-3.76,30.07-4.64c10-1.54,20-3.08,30-5,79.9-14.13,158.87-32.91,237.76-51.85Q-9.7,943.36,49.68,930l29.76-6.38,14.88-3.19,14.93-2.93,29.87-5.84,30-5.18C249.18,893.2,329.62,882.21,409,865.3c39.64-8.49,79-18.39,117.67-30.54s76.79-26.06,114.2-41.67,74.2-32.76,109.93-51.87,70.65-39.82,105.86-60,70.78-39.87,107.57-57.12c18.31-8.81,37.06-16.67,55.94-24.19,19-7.18,38.13-14.23,57.91-19.1,9.85-2.61,19.84-4.59,29.86-6.41,10.06-1.59,20.16-3,30.33-3.66a262,262,0,0,1,30.57-.51,214.34,214.34,0,0,1,30.42,3.28c10.1,1.77,19.9,4.49,29.73,6.94s19.67,5,29.45,7.77,19.52,5.81,29.08,9.37,19,7.26,28.37,11.11c37.62,15.33,74.43,32.45,112.32,46.77q14.21,5.4,28.59,10.24c4.8,1.62,9.66,3,14.49,4.46l7.26,2.18,7.36,1.81c19.55,5.17,39.56,8.42,59.59,11.18a823.94,823.94,0,0,0,121.25,5.7c40.51-.89,81-3.94,121.24-8.47,80.56-9.19,160.42-24,239.61-41.43,19.81-4.4,39.58-8.84,59.23-13.85s39.31-10,59.16-14.38,39.94-7.79,60.25-9.17,40.81-.81,60.89,2.76,39.56,10.1,58.13,18.3,36.74,17.41,54.5,27.25c35.52,19.72,69.7,41.65,105,61.66,70.83,39.37,142.89,77.35,219.36,104.55,9.54,3.43,19.16,6.61,28.81,9.67s19.48,5.61,29.22,8.42,19.62,5.08,29.43,7.64l29.63,6.84a1173.2,1173.2,0,0,0,120,19.45c80.59,8.71,162.32,9.25,242.74-1.9-80.38,11.4-162.15,11.12-242.82,2.66A1173.71,1173.71,0,0,1,2820.88,852l-29.68-6.76c-9.83-2.53-19.71-4.84-29.49-7.55s-19.59-5.29-29.29-8.34-19.33-6.2-28.9-9.6c-76.66-27.13-148.81-65.1-219.74-104.42-35.34-20-69.54-41.89-105-61.53-17.73-9.81-35.78-19-54.35-27.11s-37.77-14.67-57.69-18.1-40.24-4.07-60.39-2.67-40.16,4.82-59.93,9.19-39.41,9.48-59.08,14.43-39.47,9.51-59.27,13.92c-79.24,17.51-159.14,32.45-239.83,41.74-40.34,4.58-80.86,7.68-121.47,8.62a828.7,828.7,0,0,1-121.67-5.59c-20.13-2.75-40.25-6-59.95-11.18l-7.41-1.82-7.32-2.19c-4.86-1.5-9.78-2.85-14.6-4.48q-14.44-4.85-28.71-10.24c-38-14.34-74.9-31.41-112.43-46.69-9.37-3.86-18.81-7.51-28.28-11.11s-19.09-6.56-28.82-9.32-19.55-5.29-29.37-7.79-19.62-5.18-29.51-6.92a213,213,0,0,0-30-3.27,258.6,258.6,0,0,0-30.24.47c-10.07.65-20.09,2-30.06,3.6-9.94,1.8-19.86,3.75-29.63,6.33-19.65,4.81-38.67,11.79-57.62,18.93-18.81,7.48-37.51,15.29-55.78,24.06-36.71,17.16-72.2,36.84-107.44,56.9s-70.15,40.81-106,59.92-72.74,36.19-110.2,51.85S566,824.78,527.27,836.85s-78.19,22-117.89,30.47c-79.45,16.84-159.94,27.75-240,40.9l-30,5.14-29.85,5.81-14.93,2.91-14.87,3.16L50,931.59C10.45,940.43-29,949.67-68.51,959.05c-78.95,18.69-158,37.24-238,51.13-10,1.88-20,3.39-30,4.9l-30.09,4.54-30.21,3.67-15.11,1.81-15.16,1.3-30.32,2.58-30.4,1.33L-503,1031l-15.22,0Z" transform="translate(549.31 -9.52)"/><path class="cls-9" d="M-548.56,1020.63l30.23-.66,15.12-.32,15.09-1,30.17-2,30.07-3.17,15-1.6,15-2.06,29.94-4.18c10-1.56,19.89-3.31,29.83-5s19.89-3.29,29.78-5.27c79.29-14.75,157.75-33.51,236.41-51.3,39.32-9,78.8-17.28,118.37-25.09l29.77-5.39,14.89-2.69,15-2.32L136,904l30-3.7c80.15-9.17,160.67-14.72,240.49-26.08,39.9-5.7,79.6-12.8,118.77-22.24s77.9-20.7,116-33.73S717,790.58,753.7,773.91s72.58-35,108.61-53.19,72.18-36.1,109.23-52.15c18.47-8.16,37.25-15.59,56.14-22.72,19-6.88,38-13.65,57.69-18.55,9.78-2.61,19.69-4.66,29.61-6.61,10-1.76,20-3.33,30-4.34a297.23,297.23,0,0,1,60.68-.42c10.12,1,20,2.82,30,4.25l29.92,4.44c10,1.55,19.95,3.25,29.85,5.43s19.68,4.5,29.48,6.91c39.2,9.62,78,20.57,117.32,29.37,9.83,2.18,19.67,4.29,29.56,6.18,4.93,1,9.9,1.72,14.85,2.6s9.91,1.67,14.91,2.23c19.91,2.84,40,4.08,60.12,5,80.52,2.87,161.08-4.92,240.86-15.91,39.92-5.54,79.69-12.18,119.36-19.36l118.87-22.4,29.72-5.6c9.89-1.91,19.76-3.94,29.63-6,19.74-4.08,39.5-8.2,59.44-11.45,39.71-6.68,80.91-9,120.62-.27,19.82,4.29,38.88,11.6,57,20.41s35.93,18.48,53.31,28.74c34.76,20.54,68.25,43.08,102.73,63.94,69.25,41.16,139.81,80.88,215,110,9.39,3.67,18.86,7.1,28.37,10.41s19.19,6.11,28.8,9.15,19.37,5.54,29.05,8.33c9.74,2.59,19.52,5,29.28,7.5a1084.74,1084.74,0,0,0,118.92,21.54c80,9.81,161.33,10.88,241.14-1.23-79.77,12.36-161.19,11.55-241.23,2A1085.1,1085.1,0,0,1,2823.57,861c-9.78-2.46-19.58-4.85-29.34-7.41-9.7-2.77-19.47-5.28-29.11-8.25s-19.34-5.78-28.88-9.07-19-6.71-28.46-10.34c-75.41-29.09-146.07-68.8-215.42-109.9-34.55-20.86-68.05-43.36-102.77-63.82-17.36-10.22-35-19.94-53.19-28.6s-37-16-56.62-20.19c-39.37-8.58-80.25-6.29-119.83.41-19.87,3.27-39.59,7.4-59.33,11.5-9.87,2-19.75,4.09-29.65,6L2041.25,627l-118.88,22.54c-39.67,7.23-79.47,13.91-119.43,19.5-79.86,11.08-160.52,19-241.33,16.2-20.17-1-40.37-2.18-60.39-5-5-.56-10-1.37-15-2.23s-10-1.56-14.94-2.59c-9.92-1.89-19.8-4-29.65-6.18-39.42-8.78-78.28-19.68-117.41-29.26q-14.67-3.63-29.41-6.93c-9.79-2.17-19.7-3.87-29.65-5.43l-29.9-4.46c-10-1.45-19.92-3.28-29.86-4.27a293.54,293.54,0,0,0-60.08.36c-10,1-19.92,2.54-29.81,4.27-9.86,1.92-19.71,4-29.43,6.54-19.52,4.84-38.5,11.55-57.44,18.39-18.84,7.1-37.58,14.49-56,22.61-37,16-73.11,33.9-109.15,52s-72,36.47-108.76,53.12-74.48,31.2-112.66,44.28-77,24.31-116.26,33.66-79,16.5-119,22.15C326.87,887.53,246.33,893,166.23,902.07l-30,3.67-29.88,4.58-14.94,2.3-14.87,2.67-29.76,5.35q-59.34,11.64-118.35,24.93c-78.7,17.53-157.24,36.06-236.6,50.57-9.9,1.94-19.86,3.54-29.81,5.17s-19.89,3.33-29.85,4.86l-30,4.09-15,2-15,1.55-30.08,3.09-30.19,1.92-15.09,1-15.12.28Z" transform="translate(549.31 -9.52)"/><path class="cls-9" d="M-548.48,1010.41l30.13-1.31,15.06-.65,15-1.3,30-2.61,29.92-3.69,15-1.86,14.91-2.27,29.79-4.62,29.68-5.29c9.9-1.78,19.79-3.52,29.64-5.57,78.91-15.41,157.11-34.27,235.79-50.93,39.3-8.52,78.86-15.87,118.52-22.54l29.85-4.39c5-.71,9.94-1.54,14.94-2.14l15-1.71c10-1.09,20-2.38,30-3.3l30.1-2.23c80.3-5,160.79-5.1,241-11,40.07-2.9,80-7.33,119.65-14s78.87-15.42,117.64-25.9,77.16-22.57,114.69-36.86,74.42-30.31,111.26-46.41,73.65-32.36,111.05-47.22c18.67-7.5,37.53-14.53,56.5-21.26,9.52-3.24,19-6.61,28.62-9.63s19.29-5.84,29.06-8.32c39-10,79.26-16.19,119.69-15,10.13.35,20.11,1.22,30.14,1.64l30.11,1.23c10,.4,20.12.87,30.17,1.71l30,2.77c40,3.93,80,8.56,120,11.74,20,1.61,40.07,2.87,60.12,3.36s40.13-.08,60.19-1C1655,675.72,1734.7,664.12,1814,651c39.65-6.56,79.2-13.83,118.78-20.86l118.85-20.72c19.8-3.47,39.61-6.93,59.46-10.11s39.72-6.42,59.73-8.66,40.17-3.62,60.33-3A279.37,279.37,0,0,1,2291,595.7c19.61,4.84,38.43,12.65,56.23,22,17.93,9.19,35.26,19.48,52.33,30.13,34.13,21.35,67,44.55,100.75,66.38,67.8,43.07,137,84.7,211.07,116,9.25,3.92,18.58,7.62,28,11.23s18.94,6.68,28.45,9.93,19.16,6,28.73,9.08,19.34,5.46,29,8.21a999.51,999.51,0,0,0,118.11,23.83c79.53,11,160.83,12.65,240.26-.46-79.39,13.37-160.73,11.95-240.37,1.21a1000.49,1000.49,0,0,1-118.29-23.48c-9.68-2.72-19.42-5.25-29.06-8.12s-19.3-5.7-28.8-9-19.1-6.32-28.53-9.86-18.77-7.27-28-11.16c-74.29-31.24-143.56-72.87-211.45-115.9-33.82-21.81-66.71-45-100.81-66.25-17.05-10.61-34.34-20.86-52.22-30-17.75-9.34-36.37-17-55.82-21.81a276.74,276.74,0,0,0-59.43-7.94c-20-.59-40.09.83-60,3.06s-39.79,5.43-59.62,8.71-39.65,6.68-59.44,10.17L1933.2,632.55c-39.58,7.08-79.12,14.39-118.79,21-79.31,13.21-159.06,24.92-239.5,29.13-20.11.9-40.25,1.41-60.39,1s-40.24-1.71-60.3-3.3c-40.12-3.15-80.09-7.72-120.08-11.63l-30-2.8c-10-.84-20-1.32-30-1.73L1244,663c-10.06-.44-20.12-1.32-30.08-1.67-40.05-1.21-80.09,4.85-118.89,14.8-9.72,2.45-19.35,5.28-28.93,8.25s-19,6.34-28.55,9.57c-18.93,6.69-37.76,13.68-56.41,21.16-37.36,14.79-74.17,31-111,47.06S796.32,794.3,758.65,808.5s-76.11,26.26-114.94,36.8-78.2,19.15-117.89,25.83S446.08,882.21,406,885.07c-80.27,5.8-160.77,5.87-241,10.73L134.91,898c-10,.91-20,2.19-29.95,3.27L90,903c-5,.6-9.95,1.42-14.92,2.11l-29.82,4.37C5.61,916-33.92,923.37-73.23,931.79c-78.71,16.41-157,35-236,50.2-9.85,2-19.76,3.73-29.66,5.47l-29.71,5.2-29.81,4.53-14.92,2.23-15,1.8-29.94,3.6-30.06,2.51-15,1.26-15.07.61Z" transform="translate(549.31 -9.52)"/><path class="cls-9" d="M-548.39,1000.19l30.09-2,15-1,15-1.62,30-3.24,29.85-4.3,14.92-2.14,14.86-2.55,29.71-5.14,29.6-5.74c9.87-1.91,19.74-3.83,29.56-6,78.73-16.37,156.85-35.58,235.79-51.14,39.41-8,79.15-14.42,119-19.67,20-2.11,40-4.74,60.08-5.7l15.06-1,7.53-.5c2.51-.15,5-.11,7.54-.18l30.19-.49c80.45.33,160.79,5.1,241.18,4.37,40.19-.27,80.36-2.08,120.33-6.14S606.67,875.86,646,867.9q29.54-6,58.76-13.32,14.63-3.68,29.14-7.66c9.64-2.81,19.32-5.49,28.89-8.53,38.41-11.79,76.17-25.61,113.82-39.7s75.14-28.66,113-42.36q28.35-10.32,57-19.86c9.56-3.15,19.1-6.33,28.78-9.18s19.42-5.42,29.23-7.73c39.24-9.28,79.26-14.6,119.29-18.59,20-2.14,40.15-3.34,60.25-4.08l60.28-2.21c40.18-1.46,80.36-2.86,120.48-5.15,20.06-1.16,40.13-2.38,60.12-4.19s40-4.09,59.85-6.88c39.81-5.37,79.43-12.2,119-19.4s79-14.95,118.46-22.69c78.9-15.48,157.81-31.29,237.45-42.87,19.9-2.93,39.85-5.55,59.8-8s40-4.74,60.06-6.11c40.08-2.64,81.07-1.52,120,9.71a244.24,244.24,0,0,1,55.73,23.28c17.61,9.77,34.75,20.37,51.52,31.49,33.59,22.19,66,46.11,99,68.94,66.44,45.16,134.3,88.9,207.36,122.56,18.26,8.38,36.78,16.18,55.72,22.9,18.84,7,38,13.1,57.24,18.86a917.23,917.23,0,0,0,117.57,26.34,826.4,826.4,0,0,0,120,10.13c40.18.35,80.45-2.53,120-9.67-39.56,7.27-79.84,10.27-120,10.05a828.08,828.08,0,0,1-120.16-9.75,918.92,918.92,0,0,1-117.77-26c-19.29-5.7-38.48-11.77-57.38-18.7-19-6.67-37.58-14.43-55.89-22.76-73.26-33.61-141.22-77.35-207.76-122.46-33.13-22.82-65.52-46.69-99.07-68.81-16.76-11.08-33.87-21.64-51.43-31.35a242,242,0,0,0-55.32-23c-38.62-11.1-79.34-12.17-119.28-9.5-20,1.39-40,3.67-59.93,6.16s-39.86,5.13-59.74,8.08c-79.55,11.66-158.4,27.54-237.29,43.11-39.45,7.78-78.91,15.55-118.47,22.83s-79.21,14.12-119.09,19.55c-19.92,2.81-39.93,5.06-60,7s-40.13,3.08-60.21,4.26c-40.16,2.33-80.36,3.78-120.54,5.26-40.17,1.8-80.44,1.85-120.35,6.15-40,3.94-79.86,9.2-118.93,18.4q-14.64,3.43-29.09,7.66c-9.61,2.82-19.15,6-28.69,9.12q-28.62,9.46-57,19.77c-37.8,13.65-75.32,28.12-113,42.23s-75.51,27.85-114,39.62c-9.59,3-19.3,5.72-29,8.52q-14.57,4-29.2,7.65-29.29,7.3-58.89,13.28c-39.45,7.93-79.28,14.08-119.33,18.06s-80.3,5.8-120.53,6c-80.48.64-160.83-4.22-241.21-4.63l-30.12.45c-2.51.06-5,0-7.53.17l-7.51.49-15,1c-20.07.94-40,3.55-60,5.63C5.4,902.55-34.3,908.94-73.71,916.86c-78.94,15.29-157.13,34.27-235.93,50.39-9.83,2.11-19.7,4-29.58,5.88l-29.63,5.65-29.73,5.05-14.87,2.5-14.94,2.1-29.86,4.2-30,3.15-15,1.57-15,.95Z" transform="translate(549.31 -9.52)"/><path class="cls-9" d="M-548.31,990l30.13-2.63,15.07-1.34,15-1.9,30-3.83,29.87-4.76,14.93-2.39,14.87-2.76,29.74-5.51c19.75-4.11,39.55-7.92,59.23-12.29,78.86-16.94,157.27-36.07,236.7-50.43C-53,898.28-33,895.44-13,892.32c5-.83,10-1.42,15-2l15-1.81c10-1.15,20-2.62,30.09-3.24l30.18-2.39c5-.52,10.08-.48,15.12-.69l15.13-.47,15.14-.47c5-.21,10.09.16,15.13.22l30.28.76c80.61,4.36,160.71,14.66,241.19,19.53a1182.61,1182.61,0,0,0,241.19-8.83,1207.55,1207.55,0,0,0,118.74-22.34c39.17-9.46,77.83-21,116.27-33.12s76.66-25,115-37.63c19.17-6.29,38.35-12.53,57.61-18.56s38.59-11.88,58.14-16.95c39.07-10.19,78.79-18.13,119-22.54,20-2,39.92-5.09,59.81-8.43s39.85-6.39,59.74-9.6q59.71-9.54,119.2-20.55c39.65-7.34,79.21-15,118.5-24.08,78.61-18,156.73-38.16,235.37-56.23,39.31-9.08,78.73-17.7,118.34-25.38q59.39-11.79,119.46-19.58,30-3.85,60.19-6.51c20.1-1.8,40.24-3.26,60.44-3.77a478.34,478.34,0,0,1,60.56,1.94,320.4,320.4,0,0,1,59.46,11.74,253.91,253.91,0,0,1,55.56,24.18c17.42,10.26,34.27,21.41,50.86,32.91,33.17,23,65.07,47.76,97.55,71.66,65.2,47.34,131.77,93.47,203.93,129.58,36,18.22,73.59,33,111.91,45.43a856.76,856.76,0,0,0,117.27,29.12,768.74,768.74,0,0,0,120.26,11.62c40.29.57,80.72-2.37,120.33-10.08-39.59,7.83-80,10.91-120.34,10.46A769.05,769.05,0,0,1,2943.17,915a859.75,859.75,0,0,1-117.49-28.79c-38.4-12.38-76.15-27-112.24-45.16-36.15-18-71-38.58-104.81-60.54s-66.91-45.15-99.51-68.94S2444.67,663,2411.53,640c-16.57-11.46-33.4-22.57-50.76-32.76a251.61,251.61,0,0,0-55.15-23.94,319,319,0,0,0-59.08-11.6,477.38,477.38,0,0,0-60.28-1.86c-20.13.54-40.23,2-60.3,3.83s-40.1,4-60.09,6.56q-59.94,7.82-119.28,19.69c-39.57,7.71-79,16.38-118.24,25.49-78.58,18.14-156.66,38.43-235.31,56.48-39.32,9.1-79,16.86-118.6,24.24s-79.41,14.3-119.25,20.68c-19.93,3.19-39.86,6.13-59.74,9.53s-39.89,6.41-60,8.39c-40,4.35-79.62,12.22-118.59,22.33-19.51,5-38.81,10.77-58,16.86s-38.42,12.22-57.59,18.48c-38.33,12.54-76.57,25.38-115,37.52S809,863.53,769.74,873s-79,16.7-119,22.26a1184.9,1184.9,0,0,1-241.64,8.58c-80.56-5-160.64-15.35-241.16-19.79l-30.2-.79c-5-.06-10.07-.44-15.1-.23l-15.1.45-15.1.45c-5,.2-10.08.16-15.1.67l-30.13,2.36c-10.06.6-20,2.06-30,3.2l-15,1.79c-5,.58-10,1.16-15,2-19.92,3.08-39.87,5.93-59.68,9.71-79.41,14.1-157.88,33-236.8,49.68-19.7,4.31-39.52,8.06-59.28,12.1l-29.76,5.43-14.88,2.71-14.95,2.34-29.89,4.68-30,3.73-15,1.86-15.07,1.28Z" transform="translate(549.31 -9.52)"/><path class="cls-9" d="M-548.23,979.75c80.86-7.31,160.48-23.88,239.57-41.72s158-37.1,238.12-50.27S91.21,868,172,877.5c80.67,9.16,160.41,24.7,240.87,34.77,40.22,5,80.64,8.48,121.16,9.36a1209.87,1209.87,0,0,0,121.48-3.2,1209,1209,0,0,0,120.54-15.3c39.87-7.23,79.4-16.36,118.61-26.65s78.17-21.56,117.06-33.07l58.3-17.4q29.13-8.79,58.54-16.71c39.22-10.48,78.8-19.68,118.71-27.1,19.88-3.78,39.55-8.64,59.16-13.76s39.24-10.26,58.78-15.64c39.1-10.71,78-22.25,116.75-34.14s77.5-23.93,116.09-36.43c77.19-24.91,154.34-50.2,232.71-71.39,39.18-10.58,78.57-20.45,118.34-28.61,39.65-8.65,79.78-15.22,120.1-20s80.91-7.36,121.54-7.1,81.47,4.86,120.31,17.27c9.65,3.22,19.2,6.74,28.52,10.85a270.5,270.5,0,0,1,27.12,14c17.41,10.58,33.94,22.34,50.4,34.24,32.78,24,64.34,49.51,96.27,74.51,64,49.71,129.41,98.24,200.64,137.12,35.48,19.63,72.77,35.79,111,49.33a833.49,833.49,0,0,0,117.17,32.17A718.39,718.39,0,0,0,3063,938c40.51.87,81.21-2.12,120.94-10.42-39.7,8.43-80.41,11.54-120.95,10.8a718.85,718.85,0,0,1-120.89-12.95,833.87,833.87,0,0,1-117.41-31.84c-38.29-13.43-75.72-29.52-111.33-49.07-35.69-19.36-69.95-41.28-103.25-64.47s-65.78-47.57-97.77-72.56S2448.75,657,2416,633.13c-16.42-11.85-33-23.61-50.28-34.08a267.54,267.54,0,0,0-26.93-13.89c-9.24-4.06-18.74-7.55-28.33-10.74-38.58-12.28-79.26-16.77-119.69-17s-81,2.55-121.25,7.22-80.27,11.36-119.87,20c-39.7,8.19-79,18.08-118.16,28.69C1753.22,634.6,1676.14,660,1599,685c-38.58,12.53-77.32,24.6-116.09,36.56s-77.66,23.54-116.8,34.27c-19.58,5.38-39.22,10.43-58.84,15.59s-39.38,10-59.36,13.74c-39.86,7.37-79.37,16.5-118.53,26.93q-29.38,7.82-58.49,16.62L1012.53,846c-38.92,11.47-77.89,22.78-117.18,33s-78.86,19.36-118.83,26.56a1211.29,1211.29,0,0,1-120.8,15.21A1214.19,1214.19,0,0,1,534,923.83c-40.6-.93-81.1-4.48-121.37-9.51-80.54-10.17-160.24-25.79-240.82-35-80.59-9.59-162.22-3.08-242.12,10-80.08,12.91-159,31.94-238.21,49.52S-467.35,972.69-548.23,979.75Z" transform="translate(549.31 -9.52)"/><path class="cls-9" d="M-548.14,969.53c162.86-18.63,318.89-72.59,481-96a928.52,928.52,0,0,1,122.28-10c20.47-.08,41,.53,61.36,2.2s40.73,4.43,60.85,8.15c80.64,14,159.86,34.88,240.22,49.89,160.6,31.06,327.23,26.85,486.86-8,40-8.34,79.7-18.15,119.19-28.7,19.74-5.28,39.43-10.79,59.08-16.4l59.11-16.41,118.22-32.8c19.64-5.53,39-11.94,58.32-18.7s38.49-13.75,57.58-21c76.41-29,151.28-62.06,226.72-93.67,37.7-15.88,75.49-31.54,113.63-46.37S1793,613,1831.91,600.5s78.37-23.74,118.27-32.86c20-4.37,39.92-9.06,60.13-12.43q30.24-5.3,60.78-8.68a829.18,829.18,0,0,1,122.65-4.76c40.87,1.63,81.9,7.46,120.81,20.62,4.81,1.76,9.71,3.31,14.43,5.31l7.14,2.87c2.37,1,4.68,2.09,7,3.13a254.85,254.85,0,0,1,27.31,14.16A303.4,303.4,0,0,1,2396,604.94c8.3,6,16.46,12.16,24.6,18.37,32.45,25,63.71,51.38,95.16,77.52,63,52.07,127.1,103.32,197.45,145.1,17.57,10.41,35.49,20.28,53.85,29.23,18.45,8.76,37.1,17.14,56.2,24.41A792,792,0,0,0,2940.55,935,659.11,659.11,0,0,0,3062,950.22c40.83,1.17,81.91-1.86,121.85-10.79-39.91,9.05-81,12.22-121.86,11.18a659.81,659.81,0,0,1-121.64-14.89,792.5,792.5,0,0,1-117.5-35.08c-19.15-7.23-37.86-15.56-56.38-24.28-18.42-8.92-36.4-18.74-54-29.12-35.26-20.81-69-44.14-101.72-68.67s-64.62-50.22-96.1-76.35-62.76-52.48-95.19-77.37c-8.13-6.19-16.29-12.34-24.58-18.31a296.53,296.53,0,0,0-25.44-16.95,252.16,252.16,0,0,0-27.13-14c-2.33-1-4.63-2.13-7-3.1l-7.1-2.85c-4.69-2-9.56-3.51-14.35-5.26-38.67-13-79.5-18.8-120.23-20.37a826,826,0,0,0-122.3,4.87q-30.43,3.4-60.63,8.73c-20.14,3.37-40,8.08-60,12.46-39.82,9.15-79.16,20.35-118,32.93s-77.32,26.51-115.42,41.31-75.84,30.55-113.51,46.47c-75.39,31.67-150.22,64.79-226.73,93.93q-28.69,10.89-57.68,21c-19.32,6.74-38.78,13.15-58.51,18.69L1142.6,857l-59.11,16.35q-29.52,8.39-59.15,16.35C984.8,900.24,945.05,910,905,918.33c-159.92,34.7-327,38.74-487.77,7.46-80.44-15.12-159.62-36-240.15-50.15-20.11-3.73-40.35-6.34-60.69-8.19-20.35-1.69-40.77-2.32-61.2-2.25A934.86,934.86,0,0,0-66.91,875C-228.92,897.9-385.22,951.4-548.14,969.53Z" transform="translate(549.31 -9.52)"/><path class="cls-9" d="M-548.06,959.31c164-22.53,320.91-79.67,485.4-99.86,20.54-2.36,41.13-4.39,61.79-5.27l7.75-.41,7.75-.19,15.5-.34c10.34.11,20.69,0,31,.56,41.36,1.3,82.5,7.76,122.6,17.72,80.45,19.2,159.1,45,239.26,64.83A1180,1180,0,0,0,667.75,971.2c82.51,3.24,165.25-2.53,246.74-15.7q61.11-9.9,121.35-24.53c40.14-9.66,79.9-20.89,119.46-32.72s78.88-24.57,117.69-38.58c38.7-14.28,76.41-31.19,113.68-48.95,74.58-35.51,146.84-75.67,220.13-113.89s147.49-75,224.77-104.62a1164.86,1164.86,0,0,1,118-38.17l7.49-2,7.55-1.77,15.11-3.5c10.09-2.29,20.13-4.78,30.3-6.67,20.32-3.91,40.78-7.08,61.34-9.37a705,705,0,0,1,123.94-3.31c41.26,2.69,82.48,9.77,121.56,23.64a333.88,333.88,0,0,1,56.31,26.15A293.48,293.48,0,0,1,2399,594.45c8.26,6.26,16.31,12.73,24.37,19.2,32.13,26,63.13,53.41,94.16,80.7,62,54.48,124.87,108.61,194.35,153.4,69,45.42,146.29,77.76,226.51,97.25l7.51,1.85,7.58,1.58,15.16,3.16c10.13,2,20.36,3.47,30.53,5.22,10.25,1.21,20.48,2.66,30.76,3.61l15.44,1.17,7.72.59,7.74.23c41.24,1.52,82.8-1.54,123-11.14-40.19,9.72-81.76,12.91-123,11.53l-7.75-.22-7.73-.56-15.46-1.12c-10.29-.93-20.53-2.34-30.79-3.52-10.19-1.73-20.43-3.17-30.57-5.13l-15.19-3.12-7.59-1.56-7.53-1.83c-80.35-19.26-157.87-51.41-227.16-96.71-69.67-44.76-132.59-98.9-194.71-153.32-31.06-27.26-62.07-54.58-94.19-80.55-8.05-6.45-16.12-12.92-24.33-19.13a290.25,290.25,0,0,0-25.7-17.11,332.76,332.76,0,0,0-56-25.92c-38.88-13.74-79.9-20.75-121-23.39A702.43,702.43,0,0,0,2071.63,533q-30.74,3.47-61.14,9.4c-10.14,1.9-20.15,4.39-30.21,6.69l-15.07,3.5-7.53,1.78-7.48,2a1167,1167,0,0,0-117.7,38.21c-77.1,29.62-151.24,66.36-224.38,104.73S1462.67,777.91,1388,813.53c-37.34,17.74-75.14,34.65-114,48.93-38.93,14-78.3,26.6-117.89,38.51s-79.42,23-119.64,32.64-80.76,17.88-121.58,24.45c-81.65,13.1-164.58,18.8-247.24,15.46a1181.87,1181.87,0,0,1-245.15-35.17c-80.24-20-158.85-45.82-239.18-65.07-40.05-10-81-16.46-122.25-17.81-10.3-.57-20.62-.47-30.93-.59l-15.48.32-7.73.18-7.73.4c-20.62.85-41.18,2.9-61.69,5.17C-226.8,880.6-384,937.28-548.06,959.31Z" transform="translate(549.31 -9.52)"/><path class="cls-9" d="M-548,949.09c82.65-13.26,163.52-35.14,244.57-55.66s162.69-40.11,246.13-48c20.83-2,41.76-3,62.68-3.33,20.94-.1,41.88.7,62.74,2.57,20.82,2.18,41.6,5,62.06,9.57s40.63,10.17,60.63,16.3c80.14,24.23,158,55.1,238,79.59q15,4.59,30.06,8.85c10,2.9,20.24,5.18,30.35,7.8l30.4,7.63,30.72,6.15,15.37,3.06c5.14.94,10.22,2.21,15.4,2.85l31,4.62,15.5,2.31c2.58.36,5.15.83,7.75,1.09l7.8.78,31.18,3.12a1225.69,1225.69,0,0,0,250.2-2.78,1237.38,1237.38,0,0,0,244.38-53.71l29.7-10c5-1.55,9.79-3.64,14.67-5.49l14.6-5.68,29.19-11.39,28.6-12.78L1300,890.2c4.75-2.16,9.58-4.16,14.19-6.63l27.94-14.16c18.79-9.13,36.86-19.67,55.15-29.75,72.67-41.36,142.67-87.22,213.63-131.55q53.08-33.48,107.64-64.59c18.38-10,36.53-20.46,55.3-29.75l14-7.16c4.66-2.38,9.29-4.82,14.07-7l28.45-13.31c38.26-16.94,77.17-32.71,117.4-44.42,19.89-6.61,40.38-11,60.7-16.12A578.34,578.34,0,0,1,2070.29,515a613.79,613.79,0,0,1,125.44-2.88,503.3,503.3,0,0,1,62.17,9,413.87,413.87,0,0,1,60.39,17.34,353.07,353.07,0,0,1,56.77,26.94,332.44,332.44,0,0,1,50.6,37.23c31.8,27.22,62.56,55.6,93.23,84,61.27,56.88,122.74,114,191.3,162,4.22,3.08,8.55,6,12.92,8.86l13,8.68c8.74,5.73,17.75,11,26.61,16.55,4.49,2.67,9.09,5.15,13.63,7.73s9,5.25,13.73,7.54l14,7.11,7,3.54,7.12,3.28a709.38,709.38,0,0,0,117.65,42.84c40.37,10.8,81.83,17.77,123.6,19.72s83.85-1.09,124.43-11.41c-40.54,10.45-82.7,13.62-124.45,11.79s-83.33-8.67-123.77-19.36A710.85,710.85,0,0,1,2817.73,913l-7.15-3.26-7-3.52-14-7.08c-4.71-2.29-9.18-5-13.78-7.52s-9.18-5-13.68-7.7c-8.9-5.51-17.95-10.79-26.72-16.5l-13.09-8.65c-4.39-2.86-8.74-5.77-13-8.84C2640.57,802,2579,744.8,2517.67,688c-30.71-28.41-61.48-56.74-93.27-83.9a331.26,331.26,0,0,0-50.36-37,351.07,351.07,0,0,0-56.47-26.71,410.72,410.72,0,0,0-60.11-17.2,500.55,500.55,0,0,0-61.91-8.91,610.67,610.67,0,0,0-125,3,571.8,571.8,0,0,0-61.64,10.85c-20.25,5.07-40.67,9.51-60.5,16.13-40.11,11.72-78.9,27.49-117,44.43L1803,602c-4.77,2.15-9.39,4.58-14,7L1775,616.14c-18.71,9.29-36.83,19.73-55.17,29.75q-54.37,31.22-107.46,64.65c-70.88,44.37-140.86,90.35-213.61,131.82-18.34,10.08-36.44,20.61-55.3,29.75l-28,14.18c-4.62,2.46-9.46,4.47-14.23,6.62l-14.35,6.39-28.69,12.78-29.27,11.38-14.64,5.69c-4.9,1.84-9.71,3.93-14.71,5.48l-29.79,10a1240.3,1240.3,0,0,1-245,53.57,1227.82,1227.82,0,0,1-250.71,2.53l-31.24-3.16-7.81-.79c-2.6-.27-5.18-.74-7.77-1.1l-15.52-2.33-31-4.66c-5.2-.66-10.29-1.92-15.43-2.88l-15.39-3.08-30.78-6.19-30.44-7.67c-10.13-2.64-20.35-4.94-30.4-7.85s-20.1-5.83-30.1-8.9c-80-24.6-157.87-55.55-237.88-79.84-20-6.14-40.11-11.78-60.48-16.32S88.74,848.5,68,846.31c-20.79-1.89-41.68-2.71-62.56-2.63-20.88.33-41.76,1.26-62.57,3.22-83.31,7.66-165,27-246.07,47.26S-465.29,936.08-548,949.09Z" transform="translate(549.31 -9.52)"/></g></g></g></g></svg>